<?xml version="1.0" encoding="UTF-8"?><svg id="b" xmlns="http://www.w3.org/2000/svg" viewBox="0 0 146.52 145.47"><g id="c"><path d="M41.79,20.69c-1.04-.75-2.49-.52-3.24.52l-4.4,6.08V2.32c0-1.28-1.04-2.32-2.32-2.32s-2.32,1.04-2.32,2.32v25.22l-4.82-6.37c-.77-1.02-2.23-1.23-3.25-.45-1.02.77-1.23,2.23-.45,3.25l8.99,11.89c.44.58,1.13.92,1.85.92h.02c.74,0,1.43-.36,1.86-.96l8.6-11.89c.75-1.04.52-2.49-.52-3.24Z" fill="#009e4a"/><path d="M70.17,20.69c-1.04-.75-2.49-.52-3.24.52l-4.4,6.08V2.32c0-1.28-1.04-2.32-2.32-2.32s-2.32,1.04-2.32,2.32v25.22l-4.82-6.37c-.77-1.02-2.23-1.23-3.25-.45-1.02.77-1.23,2.23-.45,3.25l8.99,11.89c.44.58,1.13.92,1.85.92h.03c.74,0,1.42-.36,1.86-.96l8.6-11.89c.75-1.04.52-2.49-.52-3.24Z" fill="#009e4a"/><path d="M99.96,20.69c-1.04-.75-2.49-.52-3.24.52l-4.4,6.08V2.32c0-1.28-1.04-2.32-2.32-2.32s-2.32,1.04-2.32,2.32v25.22l-4.82-6.37c-.77-1.02-2.23-1.23-3.25-.45-1.02.77-1.23,2.23-.45,3.25l8.99,11.89c.44.58,1.13.92,1.85.92h.02c.74,0,1.42-.36,1.86-.96l8.6-11.89c.75-1.04.52-2.49-.52-3.24Z" fill="#009e4a"/><path d="M129.27,20.69c-1.04-.75-2.49-.52-3.24.52l-4.4,6.08V2.32c0-1.28-1.04-2.32-2.32-2.32s-2.32,1.04-2.32,2.32v25.22l-4.82-6.37c-.77-1.02-2.23-1.23-3.25-.45-1.02.77-1.23,2.23-.45,3.25l8.99,11.89c.44.58,1.12.92,1.85.92h.03c.74,0,1.42-.36,1.86-.96l8.6-11.89c.75-1.04.52-2.49-.52-3.24Z" fill="#009e4a"/><path d="M144.93,45.8l-.67-.24-142.12.17h-.11s-.89.39-.89.39l-.07.06c-.68.62-1.07,1.53-1.07,2.5v93.57c0,1.77,1.27,3.22,2.83,3.22h140.85c1.56,0,2.83-1.44,2.83-3.22V48.69c0-1.24-.61-2.34-1.6-2.89ZM142.09,132.86v7.62h-39.75v-7.62h39.75ZM87.38,132.86h10.53v7.62h-10.53v-7.62ZM82.94,132.86v7.62h-19.82v-7.62h19.82ZM58.69,132.86v7.62h-10.54v-7.62h10.54ZM43.72,132.86v7.62H4.43v-7.62h39.29ZM142.09,70.41v57.45H4.43v-57.45h137.66ZM142.09,50.46v14.97H4.43v-14.97h137.66Z" fill="#004a9b"/><path d="M125.23,60.44h7.72c1.22,0,2.22-1.12,2.22-2.5s-.99-2.5-2.22-2.5h-7.72c-1.22,0-2.22,1.12-2.22,2.5s.99,2.5,2.22,2.5Z" fill="#004a9b"/><path d="M62.93,122.98c-.36,0-.73-.11-1.04-.32-.73-.5-1-1.46-.64-2.27l8.68-19.32-9.52-3.02c-.6-.19-1.07-.68-1.23-1.29s0-1.26.44-1.73l18.96-20.18c.58-.61,1.5-.76,2.24-.35.74.41,1.1,1.27.88,2.08l-3.53,13.3,10.04,4.94c.53.26.91.76,1,1.35.1.59-.09,1.18-.51,1.6l-24.48,24.66c-.36.36-.83.54-1.31.54M64.31,95.42l8.7,2.76c.5.16.91.52,1.12,1,.21.48.21,1.03,0,1.51l-5.37,11.96,15.53-15.65-9.1-4.47c-.79-.39-1.19-1.28-.97-2.13l2.05-7.71-11.96,12.73Z" fill="#009e4a"/></g></svg>