<?xml version="1.0" encoding="UTF-8"?><svg id="b" xmlns="http://www.w3.org/2000/svg" viewBox="0 0 44.55 57.72"><g id="c"><rect x="0" y="8.39" width="44.55" height="14.79" rx="2.62" ry="2.62" fill="#dfe4e8"/><rect x="0" y="25.82" width="44.55" height="14.79" rx="2.62" ry="2.62" fill="#dfe4e8"/><rect x="0" y="42.93" width="44.55" height="14.79" rx="2.62" ry="2.62" fill="#dfe4e8"/><rect x="31.76" y="47.61" width="8.12" height="5.78" rx=".08" ry=".08" fill="#fff"/><rect x="31.76" y="30.28" width="8.12" height="5.78" rx=".08" ry=".08" fill="#fff"/><rect x="31.76" y="12.84" width="8.12" height="5.78" rx=".08" ry=".08" fill="#fff"/><path d="M15.32,0h14.19C30.42,0,31.15.73,31.15,1.63v3.78c0,.1-.08.18-.18.18H13.82c-.1,0-.18-.08-.18-.18V1.68C13.64.75,14.39,0,15.32,0Z" fill="#00a651"/></g></svg>