<?xml version="1.0" encoding="UTF-8"?><svg id="b" xmlns="http://www.w3.org/2000/svg" viewBox="0 0 158.58 192.3"><g id="c"><path d="M144.55,180.2l6.34-6.34c.29-.29.76-.29,1.05,0l6.65,6.65v-78.32l-6.65,6.65c-.29.29-.76.29-1.05,0l-6.34-6.34c-.29-.29-.29-.76,0-1.05l14.04-14.04V7.96c0-4.4-3.56-7.96-7.96-7.96H7.96C3.56,0,0,3.56,0,7.96v176.38c0,4.4,3.56,7.96,7.96,7.96h48.37l18.58-18.58c.29-.29.76-.29,1.05,0l6.34,6.34c.29.29.29.76,0,1.05l-11.2,11.2h37.31v-2.43c0-.41.33-.74.74-.74h8.97c.41,0,.74.33.74.74v2.43h31.76c1.43,0,2.77-.38,3.93-1.04l-10.01-10.01c-.29-.29-.29-.76,0-1.05ZM108.42,62.92c0-.41.33-.74.74-.74h8.97c.41,0,.74.33.74.74v28.56c0,.41-.33.74-.74.74h-8.97c-.41,0-.74-.33-.74-.74v-28.56ZM65.25,145.57c0,.41-.33.74-.74.74h-28.56c-.41,0-.74-.33-.74-.74v-8.97c0-.41.33-.74.74-.74h28.56c.41,0,.74.33.74.74v8.97ZM74.91,108.69l-20.19-20.19c-.29-.29-.29-.76,0-1.05l6.34-6.34c.29-.29.76-.29,1.05,0l20.19,20.19c.29.29.29.76,0,1.05l-6.34,6.34c-.29.29-.76.29-1.05,0ZM113.57,174.11c-18,0-32.59-14.59-32.59-32.59s14.59-32.59,32.59-32.59,32.59,14.59,32.59,32.59-14.59,32.59-32.59,32.59Z" fill="#dfe4e8"/><circle cx="113.57" cy="141.52" r="32.59" transform="translate(-21.2 20.02) rotate(-9.22)" fill="#282f84"/><rect x="108.42" y="62.18" width="10.45" height="30.04" rx=".74" ry=".74" fill="#282f84"/><path d="M118.13,189.13h-8.97c-.41,0-.74.33-.74.74v2.43h10.45v-2.43c0-.41-.33-.74-.74-.74Z" fill="#282f84"/><rect x="35.21" y="135.86" width="30.04" height="10.45" rx=".74" ry=".74" fill="#282f84"/><rect x="63.29" y="79.88" width="10.45" height="30.04" rx=".74" ry=".74" transform="translate(-47.04 76.24) rotate(-45)" fill="#282f84"/><path d="M144.55,102.5l6.34,6.34c.29.29.76.29,1.05,0l6.65-6.65v-14.78l-14.04,14.04c-.29.29-.29.76,0,1.05Z" fill="#282f84"/><path d="M158.58,184.34v-3.83l-6.65-6.65c-.29-.29-.76-.29-1.05,0l-6.34,6.34c-.29.29-.29.76,0,1.05l10.01,10.01c2.4-1.37,4.03-3.95,4.03-6.92Z" fill="#282f84"/><path d="M82.3,180.06l-6.34-6.34c-.29-.29-.76-.29-1.05,0l-18.58,18.58h14.78l11.2-11.2c.29-.29.29-.76,0-1.05Z" fill="#282f84"/></g></svg>