<?xml version="1.0" encoding="UTF-8"?><svg id="b" xmlns="http://www.w3.org/2000/svg" viewBox="0 0 203.09 203.46"><g id="c"><path d="M182.34,38.91c4.34,3.34,7.15,9.62,7.2,15.07.03,2.76-1.74,8.15-.78,10.25.66,1.45,7.37,5.21,9.07,7.17,5.72,6.63,5.94,15.4,2.06,22.97-.87,1.69-3.45,4.2-3.43,6.13,2.2,4.67,5.91,8.6,6.49,14.04.66,6.15-1.21,11.54-5.43,15.96-2.28,2.39-5.47,3.83-7.41,6.59.65,9.61,2.55,17.86-5.6,24.9-4.07,3.52-7.86,3.41-12.5,5-3.97,1.36-3.68,6.91-4.98,10.52-1.46,4.04-4.06,7.43-7.78,9.72-6.4,3.95-12.81,2.25-19.89,2.11-3.45,2.65-4.93,6.92-8.35,9.65-4.58,3.67-10.88,5.15-16.62,3.6-3.29-.89-9.22-5.5-11.63-5.39-1.98.08-4.31,2.54-6.09,3.46-7.45,3.87-15.74,4.06-22.41-1.44-3.07-2.53-5.1-6.34-8.13-8.89-5.2.37-9.5,2.01-14.77.78-6.46-1.5-11.28-6.39-13.52-12.48-1.38-3.75-.6-7.8-5.07-9.43-5.52-2-9.4-1.47-14.22-6.28-6.44-6.4-5.07-14.5-4.26-22.71-.57-1.94-5.82-4.96-7.53-6.5-4.91-4.44-6.49-8.54-6.29-15.26.19-6.19,3.55-9.67,6.08-14.97-2.48-4.96-5.93-8.68-6.49-14.56-.49-5.03,1.54-11.5,4.94-15.3,1.71-1.91,7.1-4.71,7.78-6.87s-.9-8.64-.77-11.77c.21-5.2,2.96-10.23,6.98-13.52,4.22-3.45,9.35-3.66,14.25-5.75,1.84-4.44,1.95-9.38,4.53-13.47,3.72-5.88,11.15-8.98,17.97-8.51,2.26.15,5.22,1.44,7.38.87,2.75-.72,3.93-4.77,5.55-6.72,5.57-6.69,14.5-8.76,22.57-5.66,4.31,1.66,6.44,5.71,11.46,3.44,6.2-2.81,8.79-6.73,17.02-5.42,7.15,1.14,9.91,5.76,14.02,10.48,4.91,5.64,8,1.23,14.02,1.45s12.61,4.04,15.66,9.37c2.17,3.8,2.27,8.31,4.34,12.16,4.45,1.76,10.72,2.21,14.58,5.18ZM178.22,47.03c-3.92-4.22-9.32-3.6-14.33-5.42-6.61-2.41-4.44-14.36-10.2-18.8-6.74-5.2-13.74.89-19.81-.69-5.25-1.37-8.36-12.21-15.25-13.24-9.63-1.44-13.15,9.66-22.75,5.75-2.63-1.07-6.58-4.68-9.22-5.28-4.73-1.07-8.58.74-11.56,4.23-2.31,2.7-4.13,7.36-7.58,8.92s-10.54-.5-14.77-.27-8,3.69-9.34,7.66c-1.25,3.7-1.58,11.58-5.53,13.51-5.47,2.69-12.21,1.04-16.08,7.39-4.16,6.82,1.57,12.71-.52,19.48-1.3,4.22-12.48,8.3-13.25,15.28s7.54,12.88,7.49,17.95c-.04,3.46-5.9,10.09-6.78,13.72-1.52,6.21,2.99,9.51,7.02,13.01.45.39,1.25.45,1.69.83,1.24,1.07,4.83,4.39,5.28,5.7,1.46,4.29-2.32,10.45-.56,16.06,3.18,10.11,14.18,6.17,19.36,11.14,2.94,2.82,2.97,10.2,5.37,14.13,5.71,9.36,16.25,1.6,23.25,4.25,5.03,1.91,7.04,11.71,14.64,12.86,7.11,1.08,12.35-7.03,18.47-7.01,4.79.02,9.82,6.2,15.58,6.5,8.16.42,10.08-7.71,14.68-12.2,5.03-4.92,14.88,1.71,21.47-2.53s4.06-13.03,8.25-17.75c3.97-4.48,14.3-2.73,17.99-9.01,3.12-5.31.75-7.7.3-12.72-.13-1.48-.26-5.65.1-6.89.83-2.89,8.69-7.18,10.89-10.11,1.22-1.62,2.39-4.04,2.46-6.08.22-6.07-8.62-13.55-7.35-18.3.69-2.57,3.78-6.47,4.98-9.04,2.06-4.44,2.8-6.84.1-11.28-2.41-3.97-7.86-5.69-10.65-8.85-3.69-4.17-1.4-7.18-1.05-11.46.39-4.7.43-7.98-2.79-11.45Z" fill="#2a5082"/><path d="M178.22,47.03c3.22,3.47,3.18,6.75,2.79,11.45-.36,4.28-2.64,7.29,1.05,11.46,2.8,3.16,8.24,4.88,10.65,8.85,2.7,4.44,1.96,6.84-.1,11.28-1.2,2.57-4.29,6.47-4.98,9.04-1.27,4.75,7.57,12.22,7.35,18.3-.07,2.04-1.24,4.46-2.46,6.08-2.2,2.93-10.06,7.21-10.89,10.11-.36,1.24-.23,5.41-.1,6.89.46,5.02,2.82,7.41-.3,12.72-3.69,6.29-14.02,4.53-17.99,9.01-4.18,4.73-1.41,13.35-8.25,17.75s-16.44-2.39-21.47,2.53c-4.59,4.49-6.52,12.63-14.68,12.2-5.76-.3-10.79-6.48-15.58-6.5-6.12-.03-11.36,8.09-18.47,7.01-7.6-1.16-9.6-10.96-14.64-12.86-7-2.65-17.54,5.11-23.25-4.25-2.4-3.93-2.43-11.31-5.37-14.13-5.18-4.97-16.18-1.03-19.36-11.14-1.76-5.61,2.03-11.78.56-16.06-.45-1.31-4.04-4.63-5.28-5.7-.44-.38-1.24-.44-1.69-.83-4.03-3.5-8.54-6.8-7.02-13.01.89-3.63,6.75-10.27,6.78-13.72.05-5.08-8.25-10.97-7.49-17.95s11.94-11.06,13.25-15.28c2.09-6.78-3.64-12.66.52-19.48,3.87-6.35,10.6-4.7,16.08-7.39,3.94-1.94,4.28-9.81,5.53-13.51,1.33-3.97,4.99-7.42,9.34-7.66s11.16,1.9,14.77.27,5.27-6.22,7.58-8.92c2.98-3.49,6.84-5.31,11.56-4.23,2.64.6,6.59,4.21,9.22,5.28,9.6,3.91,13.12-7.19,22.75-5.75,6.89,1.03,10,11.88,15.25,13.24,6.07,1.58,13.07-4.51,19.81.69,5.76,4.44,3.59,16.39,10.2,18.8,5,1.83,10.41,1.21,14.33,5.42ZM67.33,134.9c-33.3-35.06-.17-90.79,45.71-79.45,2.68.66,9.22,4.18,11.23,4.07.97-.05,4.99-4.53,4.71-5.47-.39-1.31-10.08-5.18-11.86-5.68-53.41-14.91-93.66,48.54-57.87,89.87,38.08,43.97,109.84,7.67,96.11-50.61-.39-1.65-2.17-7.91-4.1-7.9-.66,1.72-3.95,4.22-4.25,5.77-.52,2.65,1.71,7.38,1.98,10.5,4.08,45.82-49.92,72.34-81.67,38.92ZM153.85,50.4c-2.78-1.85-6.94-2.24-9.8-.37-12.88,12.27-23.48,26.9-35.56,39.96-.65.7-4.17,4.35-4.5,4.5-1.21.56-1.94.12-2.96-.53-7.52-4.82-15.25-21.57-26.51-12.95-5.12,3.91-3.98,10.71-.26,15.23,7.73,9.42,18.72,17.87,26.74,27.26,4.72,3.69,6.88-1.82,9.32-4.74,15.33-18.36,30.09-37.55,45.13-56.36,2.21-3.46,1.94-9.65-1.58-12Z" fill="#fff"/><circle cx="101.67" cy="102.57" r="51.28" fill="#a3d4ff"/><path d="M67.33,134.9c31.75,33.43,85.75,6.91,81.67-38.92-.28-3.11-2.5-7.84-1.98-10.5.3-1.55,3.59-4.05,4.25-5.77,1.92-.01,3.71,6.25,4.1,7.9,13.73,58.28-58.03,94.58-96.11,50.61-35.8-41.33,4.46-104.78,57.87-89.87,1.78.5,11.46,4.37,11.86,5.68.28.94-3.73,5.41-4.71,5.47-2.01.11-8.55-3.4-11.23-4.07-45.88-11.33-79.01,44.39-45.71,79.45Z" fill="#2a5082"/><path d="M153.85,50.4c3.52,2.35,3.79,8.54,1.58,12-15.03,18.81-29.8,38.01-45.13,56.36-2.44,2.92-4.6,8.42-9.32,4.74-8.02-9.39-19-17.85-26.74-27.26-3.71-4.52-4.85-11.32.26-15.23,11.27-8.62,19,8.13,26.51,12.95,1.02.65,1.76,1.09,2.96.53.33-.15,3.85-3.8,4.5-4.5,12.08-13.06,22.68-27.69,35.56-39.96,2.85-1.87,7.02-1.48,9.8.37Z" fill="#2a5082"/></g></svg>