<?xml version="1.0" encoding="UTF-8"?><svg id="b" xmlns="http://www.w3.org/2000/svg" viewBox="0 0 58.71 58"><g id="c"><rect x="15.71" y="7" width="42" height="50" rx="2" ry="2" fill="#a3d4ff"/><path d="M15.71,22v-13c0-1.1.9-2,2-2h38c1.1,0,2,.9,2,2v46c0,1.1-.9,2-2,2H17.71c-1.1,0-2-.9-2-2v-17" fill="none" stroke="#2a5082" stroke-miterlimit="10" stroke-width="2"/><rect x="19.71" y="11" width="34" height="42" fill="#fff"/><line x1="33.71" y1="22" x2="47.71" y2="22" fill="none" stroke="#2a5082" stroke-miterlimit="10" stroke-width="2"/><line x1="33.71" y1="28" x2="47.71" y2="28" fill="none" stroke="#2a5082" stroke-miterlimit="10" stroke-width="2"/><polyline points="30.71 20 28.91 24 28.71 24 28.71 24 26.71 22" fill="none" stroke="#2a5082" stroke-miterlimit="10" stroke-width="2"/><polyline points="30.71 26 28.91 30 28.71 30 28.71 30 26.71 28" fill="none" stroke="#2a5082" stroke-miterlimit="10" stroke-width="2"/><polyline points="19.71 26 19.71 11 53.71 11 53.71 53 19.71 53 19.71 42" fill="none" stroke="#2a5082" stroke-miterlimit="10" stroke-width="2"/><path d="M44.71,6h-4v-.83c0-2.09-1.53-3.95-3.61-4.15-2.39-.23-4.39,1.64-4.39,3.98v1h-4c-1.66,0-3,1.34-3,3v4h22v-4c0-1.66-1.34-3-3-3Z" fill="#fff" stroke="#2a5082" stroke-miterlimit="10" stroke-width="2"/><line x1="36.71" y1="4" x2="36.71" y2="6" fill="none" stroke="#2a5082" stroke-miterlimit="10" stroke-width="2"/><path d="M7.21,18.5l-1.59-1.59c-.78-.78-2.05-.78-2.83,0l-.17.17c-.78.78-.78,2.05,0,2.83l1.59,1.59" fill="none" stroke="#2a5082" stroke-linejoin="round" stroke-width="2"/><polygon points="3.71 22 26.71 45 34.71 49 30.71 41 7.71 18 3.71 22" fill="#fff" stroke="#2a5082" stroke-linejoin="round" stroke-width="2"/><line x1="30.71" y1="41" x2="26.71" y2="45" fill="#fff" stroke="#2a5082" stroke-linejoin="round" stroke-width="2"/><line x1="10.71" y1="21" x2="3.71" y2="28" fill="none" stroke="#2a5082" stroke-linejoin="round" stroke-width="2"/><line x1=".71" y1="25" x2="10.71" y2="35" fill="none" stroke="#2a5082" stroke-linejoin="round" stroke-width="2"/></g></svg>