<?xml version="1.0" encoding="UTF-8"?><svg id="b" xmlns="http://www.w3.org/2000/svg" viewBox="0 0 58 56.16"><g id="c"><path d="M7,44l-3,9-3-9V8c0-1.1.9-2,2-2h2c1.1,0,2,.9,2,2v36Z" fill="#a3d4ff" stroke="#2a5082" stroke-miterlimit="10" stroke-width="2"/><path d="M6,6H2v-3c0-1.1.9-2,2-2h0c1.1,0,2,.9,2,2v3Z" fill="#fff" stroke="#2a5082" stroke-linejoin="round" stroke-width="2"/><line x1="1" y1="43" x2="7" y2="43" fill="#fff" stroke="#2a5082" stroke-linejoin="round" stroke-width="2"/><line x1="1" y1="11" x2="11" y2="11" fill="none" stroke="#2a5082" stroke-linejoin="round" stroke-width="2"/><line x1="11" y1="7" x2="11" y2="22" fill="none" stroke="#2a5082" stroke-linejoin="round" stroke-width="2"/><line x1="4" y1="52" x2="4" y2="54" fill="none" stroke="#2a5082" stroke-linecap="round" stroke-linejoin="round" stroke-width="2"/><path d="M52,9h-5v6h10v-1c0-2.76-2.24-5-5-5Z" fill="#e9eaeb"/><path d="M50,15h7v-1c0-2.76-2.24-5-5-5h-5" fill="none" stroke="#2a5082" stroke-miterlimit="10" stroke-width="2"/><path d="M16,14c0-2.76,2.24-5,5-5h31c-2.76,0-5,2.24-5,5v36c0,2.76-2.24,5-5,5h-26V14Z" fill="#fff" stroke="#2a5082" stroke-miterlimit="10" stroke-width="2"/><line x1="22" y1="19" x2="40" y2="19" fill="none" stroke="#2a5082" stroke-miterlimit="10" stroke-width="2"/><line x1="22" y1="23" x2="40" y2="23" fill="none" stroke="#2a5082" stroke-miterlimit="10" stroke-width="2"/><line x1="22" y1="27" x2="40" y2="27" fill="none" stroke="#2a5082" stroke-miterlimit="10" stroke-width="2"/><line x1="22" y1="31" x2="33" y2="31" fill="none" stroke="#2a5082" stroke-miterlimit="10" stroke-width="2"/><path d="M10,50c0,2.76,2.24,5,5,5h27c-2.76,0-5-2.24-5-5H10Z" fill="#a3d4ff" stroke="#2a5082" stroke-miterlimit="10" stroke-width="2"/></g></svg>