<?xml version="1.0" encoding="UTF-8"?><svg id="b" xmlns="http://www.w3.org/2000/svg" viewBox="0 0 203.24 172.44"><g id="c"><path d="M97.23,54.77h43.76v-13.54s-.17-28.9-24.28-36.5c0,0-12.72-4.73-42.11-4.73-18.51,0-33.61,1.88-42.26,3.27-9.79,1.57-18.75,6.75-24.62,14.75-3.5,4.77-6.33,10.99-6.94,18.92-1.84,23.78-2.48,52.68,21.63,60.44,0,0,6.8,4.09,33.71,5.7,2.55.15,5.12.04,7.68.16,20.71,1.01,37.16-1.06,37.44,8.01.33,10.9,1.76,21.47-11.28,24.28-8.45,1.82-17.19,1.98-25.78,1.37-6.75-.48-13.77-.53-17.7-6.88-1.25-2.02-2.05-4.31-2.56-6.62-.12-.57-1-7.01-.69-7.02,0,0-43.23.33-43.23.33,0,0,1.2,34.54,15.16,46.07,8.86,7.32,23.05,9.56,35.29,9.61,11.13.05,22.27.12,33.4-.03,12.22-.17,39.08-2.81,50.53-13.87,0,0,.54-.49,1.37-1.39,5.96-6.42,9.2-14.92,9.2-23.69v-27.94s1.65-25.6-23.28-31.54c0,0-10.67-3.57-21.96-4.46-12.19-.96-35.17-1.32-41.94-2.97s-12.72-2.48-12.39-18c0,0-1.32-10.07,14.53-11.23s29.72.66,30.55,1.32,7.27.99,6.77,16.18Z" fill="#003ca6"/><polygon points="178.85 122.94 155.95 146.5 178.85 169.4 203.24 146.17 178.85 122.94" fill="#66cfeb"/></g></svg>