<?xml version="1.0" encoding="UTF-8"?><svg id="b" xmlns="http://www.w3.org/2000/svg" viewBox="0 0 37.99 47.6"><g id="c"><path d="M10.05,35.61c-.08.02-.13.16-.11.24l.43,2.6h13.28c.27-.68.06-1.89,1.18-1.75.91.11.61,1.15.54,1.75.78-.14,1.49.66.95,1.35-.35.44-1.04.13-1.2.32-.38,1.19-.13,2.6-1.2,3.46-.82.66-1.7.54-2.69.56-.33,1.31-.48,2.91-2.03,3.32-.67.18-3.58.17-4.26,0-1.05-.26-1.5-1.05-1.77-2.02-.08-.3-.16-1.26-.44-1.31-.71-.14-1.21.15-2.03-.23-1.53-.7-1.38-2.29-1.68-3.71-.16-.33-1.06.15-1.36-.6-.19-.46.05-.98.53-1.11.2-.05.51.05.51-.14.02-.78-.36-1.78-.4-2.59-.14-.29-.94.03-1.3-.46-.55-.74.18-1.46.97-1.37-.07-.84-.37-1.66-.79-2.38-.76-1.32-2.08-2.22-3.07-3.36C-3.41,19.49-.17,6.09,10.22,1.48c11.06-4.91,23.35,3.01,23.91,14.94.03.56.05,2.19-.34,2.58-.5.5-1.25.12-1.39-.5,1.18-12.63-12.75-21.34-23.59-14.42C.75,9.22-.67,19.84,5.39,27.17c.89,1.08,2.07,1.87,2.86,3.04.76,1.11,1.22,2.4,1.4,3.73h12.04c.63.05,1.12.81.7,1.35-.06.07-.48.33-.55.33h-11.8ZM10.78,40.06c-.07.05-.1.09-.11.17,0,.1.26,1.59.31,1.74.1.31.38.49.69.55l10.87-.02c.27-.1.54-.33.62-.62.05-.17.27-1.53.25-1.64,0-.06-.07-.18-.11-.18h-12.53ZM19.45,44.14h-4.84c.17.91.08,1.73,1.2,1.82.54.05,2.61.07,3.03-.11.13-.06.24-.14.32-.26.12-.17.37-1.1.38-1.3,0-.09-.01-.09-.08-.15Z" fill="#1a5185"/><path d="M18.97,14.49l6.73-.14c.9.25.83.87.39,1.55-1.19,1.86-2.74,3.73-4.04,5.54-2.45,3.42-4.8,6.95-7.36,10.31-.38.5-.89,1.29-1.6.66-.28-.25-.28-.55-.25-.9.17-1.62.75-3.62,1.06-5.27.06-.3.05-.67.11-.98.26-1.36.61-2.72.85-4.09-.09-.25-.62-.05-.83-.04-1.2.04-2.39.05-3.56.08-.72.01-1.95.38-2.09-.7l3.74-13.6c.08-.31.33-.6.67-.64h8.02c.43.05.67.31.75.71l-2.61,7.52ZM19.45,7.86h-5.86l-3.2,11.61c.05.18.98.13,1.2.12,1.45-.05,2.91-.19,4.37-.22.51.09.78.38.77.91,0,.37-.16,1.2-.23,1.59-.29,1.59-.71,3.17-1.01,4.75-.09.47-.15.95-.26,1.41l8.7-11.91c.02-.15,0-.09-.11-.11-.76-.1-1.58.06-2.33.08-1.29.03-2.58.04-3.87.07-.5-.11-.82-.59-.66-1.1l2.58-7.04-.1-.17Z" fill="#1a5185"/><path d="M35.69,34.05c-3.8,3.93-10.5,2.78-12.89-2.09-2.81-5.73,1.9-12.33,8.21-11.49s9.28,8.81,4.67,13.58ZM34.39,23.76c-5.59-4.91-13.55,1.64-9.9,7.89,3.33,5.7,12.1,3.09,11.89-3.51-.04-1.4-.93-3.45-1.99-4.38Z" fill="#1a5185"/><path d="M10.78,40.06h12.53s.1.12.11.18c.01.11-.21,1.47-.25,1.64-.08.29-.35.52-.62.62l-10.87.02c-.31-.06-.59-.24-.69-.55-.05-.15-.32-1.64-.31-1.74,0-.09.04-.12.11-.17Z" fill="#94d5ff"/><path d="M19.45,44.14c.07.06.09.06.08.15,0,.2-.26,1.13-.38,1.3-.08.12-.19.2-.32.26-.42.18-2.48.16-3.03.11-1.12-.1-1.03-.92-1.2-1.82h4.84Z" fill="#94d5ff"/><path d="M19.45,7.86l.1.17-2.58,7.04c-.17.51.15.99.66,1.1,1.29-.03,2.58-.04,3.87-.07.75-.02,1.57-.18,2.33-.08.1.01.13-.04.11.11l-8.7,11.91c.11-.46.17-.94.26-1.41.3-1.58.71-3.16,1.01-4.75.07-.4.23-1.22.23-1.59,0-.53-.25-.83-.77-.91-1.46.03-2.92.18-4.37.22-.22,0-1.15.06-1.2-.12l3.2-11.61h5.86Z" fill="#fff"/><path d="M34.39,23.76c1.06.93,1.95,2.98,1.99,4.38.21,6.6-8.56,9.21-11.89,3.51-3.65-6.25,4.31-12.8,9.9-7.89ZM28.27,25.52c-.3-.25-.53-.52-.95-.47-.69.09-.96.7-.55,1.27.27.38,1.95,1.8,1.97,2.04-.31.89-2.83,2.1-1.9,3.18.35.41.92.2,1.28-.09.28-.23,1.72-1.83,1.88-1.81.62.27,1.8,2.01,2.35,2.1.6.1.99-.24,1.05-.83,0-.55-2.19-2.24-2.19-2.48l.07-.15c.35-.5,1.8-1.55,1.99-2.02.3-.73-.24-1.34-1-1.22-.22.04-1.13.99-1.35,1.22-.08.08-.11.22-.19.3-.21.22-.52.42-.73.66-.15.03-1.45-1.47-1.73-1.71Z" fill="#94d5ff"/><path d="M28.27,25.52c.29.24,1.58,1.74,1.73,1.71.21-.24.52-.44.73-.66.08-.08.12-.22.19-.3.22-.23,1.13-1.18,1.35-1.22.76-.13,1.29.49,1,1.22-.19.47-1.64,1.51-1.99,2.02l-.07.15c0,.24,2.18,1.93,2.19,2.48-.05.59-.45.93-1.05.83-.54-.09-1.73-1.82-2.35-2.1-.16-.01-1.6,1.58-1.88,1.81-.35.29-.93.5-1.28.09-.93-1.09,1.59-2.29,1.9-3.18-.02-.25-1.7-1.66-1.97-2.04-.41-.57-.14-1.18.55-1.27.42-.06.65.22.95.47Z" fill="#1a5185"/></g></svg>