<?xml version="1.0" encoding="UTF-8"?><svg id="b" xmlns="http://www.w3.org/2000/svg" viewBox="0 0 856.38 174.9"><g id="c"><polygon points="831.99 128.44 809.09 152 831.99 174.9 856.38 151.67 831.99 128.44" fill="#66cfeb"/><path d="M245.28,51.69h-37.77c-22.33,0-40.43,17.93-40.43,40.26v41.39c0,22.34,17.48,39.34,39.81,39.34h37.78c22.33,0,40.84-17.47,40.84-39.8v-41.39c0-22.34-17.89-39.8-40.23-39.8ZM246.98,126.92c0,8.86-7.18,16.03-16.04,16.03h-9.1c-8.86,0-16.04-7.17-16.04-16.03v-30.9c0-8.86,7.18-16.04,16.04-16.04h9.1c8.86,0,16.04,7.18,16.04,16.04v30.9Z" fill="#003ca6"/><path d="M756.55,51.69h-37.77c-22.33,0-40.43,17.93-40.43,40.26v41.39c0,22.34,17.48,39.34,39.81,39.34h37.78c22.33,0,40.84-17.47,40.84-39.8v-41.39c0-22.34-17.89-39.8-40.23-39.8ZM758.25,126.92c0,8.86-7.18,16.03-16.04,16.03h-9.1c-8.86,0-16.04-7.17-16.04-16.03v-30.9c0-8.86,7.18-16.04,16.04-16.04h9.1c8.86,0,16.04,7.18,16.04,16.04v30.9Z" fill="#003ca6"/><rect x="620.96" y="51.51" width="38.97" height="120.62" fill="#003ca6"/><rect x="620.96" y="1.38" width="38.97" height="30.39" fill="#003ca6"/><rect x="306.87" y="1.71" width="38.97" height="170.42" fill="#003ca6"/><path d="M547.31,70.24c0-6,0-12,0-18-12.72,0-25.43,0-38.15,0,0,39.8,0,79.6,0,119.39h39.32c-.02-23.49-.03-46.98-.05-70.47,0-4.03.02-8.18,1.58-11.89,1.7-4.05,5.34-7.33,9.65-8.2s9.58.63,11.55,4.56c3.02,6.02,2.08,7.89,2.08,19.45,11.71,0,23.42,0,35.12,0-.48-7,.22-14.02.05-21.04s-1.28-14.23-5-20.17c-6.64-10.58-21.15-14.94-32.97-12.15-3.21.76-6.28,2.05-9.09,3.78-5.54,3.42-10.05,8.6-12.29,14.75h-1.8Z" fill="#003ca6"/><path d="M471.51,58.62c-13.65-7.59-30.94-7.26-30.94-7.26l-31.7.11s-23.45-.33-31.82,15.63c0,0-4.07,7.12-3.96,20.9h38.64s.11-12.97,11.78-13.19h10.57s10.57-.44,12.22,10.13l.22,27.08h-2.75s-.99-10.46-17.18-12.66c-7.72-1.05-15.58-1.06-23.34-.51-9.63.68-18.26,2.68-25.54,9.4-5.18,4.76-8.52,11.13-9.03,18.19-1.32,18.39,2.76,29.62,2.76,29.62,0,0,6.38,15.3,26.2,16.07s33.25-1.76,33.25-1.76c0,0,12.22-2.98,14.2-16.19h1.43v18.09h38.31v-85.35s.33-20.7-13.32-28.3ZM445.32,137.15c0,5.91-4.79,10.7-10.71,10.7h-15.5c-5.92,0-10.71-4.79-10.71-10.7v-3.86c0-5.91,4.79-10.7,10.71-10.7h15.5c5.92,0,10.71,4.79,10.71,10.7v3.86Z" fill="#003ca6"/><path d="M97.23,54.77h43.76v-13.54s-.17-28.9-24.28-36.5c0,0-12.72-4.73-42.11-4.73-18.51,0-33.61,1.88-42.26,3.27-9.79,1.57-18.75,6.75-24.62,14.75-3.5,4.77-6.33,10.99-6.94,18.92-1.84,23.78-2.48,52.68,21.63,60.44,0,0,6.8,4.09,33.71,5.7,2.55.15,5.12.04,7.68.16,20.71,1.01,37.16-1.06,37.44,8.01.33,10.9,1.76,21.47-11.28,24.28-8.45,1.82-17.19,1.98-25.78,1.37-6.75-.48-13.77-.53-17.7-6.88-1.25-2.02-2.05-4.31-2.56-6.62-.12-.57-1-7.01-.69-7.02L0,116.7s1.2,34.54,15.16,46.07c8.86,7.32,23.05,9.56,35.29,9.61,11.13.05,22.27.12,33.4-.03,12.22-.17,39.08-2.81,50.53-13.87,0,0,.54-.49,1.37-1.39,5.96-6.42,9.2-14.92,9.2-23.69v-27.94s1.65-25.6-23.28-31.54c0,0-10.67-3.57-21.96-4.46-12.19-.96-35.17-1.32-41.94-2.97s-12.72-2.48-12.39-18c0,0-1.32-10.07,14.53-11.23s29.72.66,30.55,1.32,7.27.99,6.77,16.18Z" fill="#003ca6"/></g></svg>