<svg xmlns="http://www.w3.org/2000/svg" xmlns:xlink="http://www.w3.org/1999/xlink" width="99.709" height="99.709" viewBox="0 0 99.709 99.709"><defs><clipPath id="clip-path"><rect id="Rect&#xE1;ngulo_1032" data-name="Rect&#xE1;ngulo 1032" width="99.709" height="99.709" fill="none"></rect></clipPath></defs><g id="Grupo_11407" data-name="Grupo 11407" transform="translate(0 -0.004)"><rect id="Rect&#xE1;ngulo_1031" data-name="Rect&#xE1;ngulo 1031" width="99.709" height="99.709" transform="translate(0 0.004)" fill="#ff1628"></rect><g id="Grupo_11398" data-name="Grupo 11398" transform="translate(0 0.004)"><g id="Grupo_11397" data-name="Grupo 11397" clip-path="url(#clip-path)"><path id="Trazado_15915" data-name="Trazado 15915" d="M21.307,11.82h0v1.35a8.088,8.088,0,0,1-2.4,6.081,8.581,8.581,0,0,1-6.206,2.32,9.183,9.183,0,0,1-6.723-2.626A8.774,8.774,0,0,1,3.329,12.5,9.012,9.012,0,0,1,12.5,3.369a8.826,8.826,0,0,1,7.632,4.072l-2.956,1.7a5.385,5.385,0,0,0-4.7-2.425,5.505,5.505,0,0,0-4.126,1.65,5.575,5.575,0,0,0-1.6,4.128,5.553,5.553,0,0,0,1.627,4.1,5.944,5.944,0,0,0,4.349,1.6c2.673,0,4.473-1.254,5.1-3.324h-5.3V11.82Z" transform="translate(3.501 3.535)" fill="#fff"></path><path id="Trazado_15916" data-name="Trazado 15916" d="M16.179,8.256h0a3.648,3.648,0,0,1,3.615-2.4v3.6a3.432,3.432,0,0,0-2.521.6,2.941,2.941,0,0,0-1.094,2.577v5.976H13.118V6.1h3.061Z" transform="translate(13.795 6.148)" fill="#fff"></path><path id="Trazado_15917" data-name="Trazado 15917" d="M20.623,13.729h0c.423,1.578,1.6,2.355,3.525,2.355a3.322,3.322,0,0,0,2.8-1.254l2.6,1.5A6.213,6.213,0,0,1,24.1,19.006a6.74,6.74,0,0,1-4.979-1.869,6.425,6.425,0,0,1-1.869-4.731A6.466,6.466,0,0,1,19.1,7.7a6.319,6.319,0,0,1,4.752-1.9,5.883,5.883,0,0,1,4.522,1.9,6.555,6.555,0,0,1,1.8,4.7,8.22,8.22,0,0,1-.125,1.323Zm6.329-2.5h0a3.026,3.026,0,0,0-3.1-2.521,3.118,3.118,0,0,0-3.276,2.521Z" transform="translate(18.141 6.098)" fill="#fff"></path><path id="Trazado_15918" data-name="Trazado 15918" d="M34.418,6.152h3.225V18.66H34.418V17.185a4.88,4.88,0,0,1-4.072,1.822,5.679,5.679,0,0,1-4.3-1.9,6.7,6.7,0,0,1-1.773-4.7,6.636,6.636,0,0,1,1.773-4.676,5.705,5.705,0,0,1,4.3-1.924,4.879,4.879,0,0,1,4.072,1.828Zm-3.471,9.78h0a3.352,3.352,0,0,0,2.472-.977,3.449,3.449,0,0,0,1-2.548,3.365,3.365,0,0,0-1-2.528,3.571,3.571,0,0,0-4.951,0,3.427,3.427,0,0,0-.977,2.528,3.514,3.514,0,0,0,.977,2.548,3.356,3.356,0,0,0,2.478.977" transform="translate(25.524 6.099)" fill="#fff"></path><path id="Trazado_15919" data-name="Trazado 15919" d="M40.165,10.871H37.338v5.2c0,1.35.979,1.379,2.827,1.274v2.93c-4.425.5-6.052-.776-6.052-4.2v-5.2H31.936v-3.1h2.177V5.248l3.225-.977v3.5h2.827Z" transform="translate(33.585 4.483)" fill="#fff"></path><path id="Trazado_15920" data-name="Trazado 15920" d="M10.979,14.255h0a5.885,5.885,0,0,1,4.251,1.7,5.627,5.627,0,0,1,1.725,4.175,5.609,5.609,0,0,1-1.725,4.177,5.864,5.864,0,0,1-4.251,1.7H7.9v5.749H4.449v-17.5Zm0,8.527h0a2.536,2.536,0,0,0,2.548-2.653,2.519,2.519,0,0,0-2.548-2.645H7.9v5.3Z" transform="translate(4.679 14.983)" fill="#fff"></path></g></g><path id="Trazado_15921" data-name="Trazado 15921" d="M11.69,14.333h3.227v17.34H11.69Z" transform="translate(12.293 15.069)" fill="#fff"></path><g id="Grupo_11400" data-name="Grupo 11400" transform="translate(0 0.004)"><g id="Grupo_11399" data-name="Grupo 11399" clip-path="url(#clip-path)"><path id="Trazado_15922" data-name="Trazado 15922" d="M24.779,16.875h3.227v12.5H24.779V27.9a4.885,4.885,0,0,1-4.072,1.828,5.659,5.659,0,0,1-4.3-1.9,6.687,6.687,0,0,1-1.781-4.7,6.649,6.649,0,0,1,1.781-4.682,5.7,5.7,0,0,1,4.3-1.926,4.881,4.881,0,0,1,4.072,1.83ZM21.31,26.653h0a3.347,3.347,0,0,0,2.472-.977,3.459,3.459,0,0,0,1-2.548,3.371,3.371,0,0,0-1-2.528,3.263,3.263,0,0,0-2.472-1,3.269,3.269,0,0,0-2.48,1,3.435,3.435,0,0,0-.977,2.528,3.526,3.526,0,0,0,.977,2.548,3.353,3.353,0,0,0,2.48.977" transform="translate(15.381 17.365)" fill="#fff"></path><path id="Trazado_15923" data-name="Trazado 15923" d="M24.379,27.823h0a6.412,6.412,0,0,1-1.877-4.7,6.46,6.46,0,0,1,6.6-6.606,6.225,6.225,0,0,1,5.6,3.227l-2.778,1.627A3.083,3.083,0,0,0,29.082,19.7a3.282,3.282,0,0,0-3.352,3.428,3.41,3.41,0,0,0,.95,2.446,3.243,3.243,0,0,0,2.4.956,3.082,3.082,0,0,0,2.874-1.656l2.8,1.6a6.647,6.647,0,0,1-10.373,1.35" transform="translate(23.664 17.366)" fill="#fff"></path><path id="Trazado_15924" data-name="Trazado 15924" d="M32.714,24.452h0c.429,1.572,1.6,2.347,3.531,2.347a3.327,3.327,0,0,0,2.8-1.245l2.6,1.5a6.2,6.2,0,0,1-5.451,2.679,6.69,6.69,0,0,1-4.971-1.877,6.39,6.39,0,0,1-1.877-4.723,6.453,6.453,0,0,1,1.849-4.7,6.322,6.322,0,0,1,4.752-1.906,5.9,5.9,0,0,1,4.528,1.906,6.581,6.581,0,0,1,1.8,4.7,9.17,9.17,0,0,1-.125,1.323Zm6.329-2.5h0a3.022,3.022,0,0,0-3.1-2.528,3.121,3.121,0,0,0-3.276,2.528Z" transform="translate(30.856 17.365)" fill="#fff"></path></g></g><path id="Trazado_15925" data-name="Trazado 15925" d="M16.21,25.4h0v3.131H11.481v13.5H8.03v-13.5h-4.7V25.4Z" transform="translate(3.5 26.705)" fill="#fff"></path><g id="Grupo_11402" data-name="Grupo 11402" transform="translate(0 0.004)"><g id="Grupo_11401" data-name="Grupo 11401" clip-path="url(#clip-path)"><path id="Trazado_15926" data-name="Trazado 15926" d="M15.61,40.438h0a6.483,6.483,0,0,1-6.6-6.6,6.342,6.342,0,0,1,1.9-4.676,6.423,6.423,0,0,1,4.7-1.924,6.631,6.631,0,0,1,4.7,11.3,6.4,6.4,0,0,1-4.7,1.9m0-3.151h0a3.283,3.283,0,0,0,2.423-.97,3.625,3.625,0,0,0,0-4.951,3.272,3.272,0,0,0-2.423-.977,3.267,3.267,0,0,0-2.425.977,3.682,3.682,0,0,0,0,4.951,3.278,3.278,0,0,0,2.425.97" transform="translate(9.475 28.636)" fill="#fff"></path></g></g><path id="Trazado_15927" data-name="Trazado 15927" d="M8.461,53.692h0l-4.9-17.509H7.187L10.54,49.162l3.648-12.979H17.14l3.677,12.979,3.352-12.979H27.79l-4.9,17.509H18.968l-3.3-11.553L12.388,53.692Z" transform="translate(3.742 38.047)" fill="#fff"></path><g id="Grupo_11404" data-name="Grupo 11404" transform="translate(0 0.004)"><g id="Grupo_11403" data-name="Grupo 11403" clip-path="url(#clip-path)"><path id="Trazado_15928" data-name="Trazado 15928" d="M21.824,51.652h0a6.493,6.493,0,0,1-6.6-6.6,6.318,6.318,0,0,1,1.9-4.676,6.412,6.412,0,0,1,4.7-1.924,6.6,6.6,0,1,1,0,13.2m0-3.151h0a3.278,3.278,0,0,0,2.431-.97,3.648,3.648,0,0,0,0-4.951,3.5,3.5,0,0,0-4.854,0,3.7,3.7,0,0,0,0,4.951,3.269,3.269,0,0,0,2.423.97" transform="translate(16.01 40.429)" fill="#fff"></path><path id="Trazado_15929" data-name="Trazado 15929" d="M26.009,40.9h0a3.834,3.834,0,0,1,3.8-2.4v3.6a3.751,3.751,0,0,0-2.653.6,2.87,2.87,0,0,0-1.149,2.577v5.976H22.782v-12.5h3.227Z" transform="translate(23.958 40.478)" fill="#fff"></path></g></g><path id="Trazado_15930" data-name="Trazado 15930" d="M38.89,53.692H35.144l-4.559-5.679v5.679H27.367V36.183h3.219V46.69l4.3-5.5h3.851l-5.022,6.171Z" transform="translate(28.779 38.047)" fill="#fff"></path><g id="Grupo_11406" data-name="Grupo 11406" transform="translate(0 0.004)"><g id="Grupo_11405" data-name="Grupo 11405" clip-path="url(#clip-path)"><path id="Trazado_15931" data-name="Trazado 15931" d="M33.557,45.064h0a2.829,2.829,0,1,1,2.825,2.8,2.809,2.809,0,0,1-2.825-2.8m5.145-.006h0a2.317,2.317,0,1,0-2.32,2.355,2.247,2.247,0,0,0,2.32-2.355M35.42,43.632H36.4c.65,0,1.073.263,1.073.837v.014a.726.726,0,0,1-.574.747l.741,1.186H37l-.679-1.081h-.291v1.081H35.42Zm.962,1.28h0c.318,0,.484-.139.484-.4V44.5c0-.3-.181-.394-.484-.394h-.353v.81Z" transform="translate(35.289 44.412)" fill="#fff"></path></g></g></g></svg>