<?xml version="1.0" encoding="UTF-8"?>
<svg id="b" xmlns="http://www.w3.org/2000/svg" version="1.1" viewBox="0 0 753.7 268.9">
  <!-- Generator: Adobe Illustrator 30.3.0, SVG Export Plug-In . SVG Version: 2.1.3 Build 182)  -->
  <defs>
    <style>
      .st0 {
        fill: #1d4997;
      }

      .st1, .st2 {
        fill: #e56b2e;
      }

      .st2 {
        stroke: #e56b2e;
        stroke-miterlimit: 10;
        stroke-width: 2px;
      }
    </style>
  </defs>
  <g id="c">
    <g id="d">
      <path class="st0" d="M73.2,60l-16.6-1.2c-10.6-.8-16.4-1.2-16.4-13.2,0-8.4,1.8-12.8,23.4-12.8s22.4,0,22.4,15.4h38.4v-6.2C124.4.6,96.4,0,63.6,0S.2,2.8.2,45.8s21.6,42.8,58.6,45.4l8.8.6c18.8,1.2,21,1,21,14s-6.2,13.8-25,13.8-25.2-1.6-25.2-17.2H0c0,49.2,25.4,50,63.6,50,66,0,65-24.4,65-49.2s-11-40-55.4-43.2h0Z"/>
      <path class="st0" d="M198.9,45c-43.8,0-52.4,10.8-52.4,53.8s9.4,53.6,52.4,53.6,52.6-10.4,52.6-53.6-8.6-53.8-52.6-53.8ZM199.5,126c-16.6,0-18.6-4.4-18.6-27.2s2-27.4,18.6-27.4,17.6,4.6,17.6,27.4-1.6,27.2-17.6,27.2h0Z"/>
      <rect class="st0" x="270.1" y="1.2" width="34.4" height="150"/>
      <path class="st0" d="M376.9,45c-24.6,0-48.4-.2-48.4,32.4h34.4c0-9.4,5.4-11.4,14-11.4,15,0,15.6,6.2,15.6,16v16.6h-1.6c-3.8-12-18.8-11.8-28.6-11.8-24.8,0-38,7.8-38,33s14,32.6,38,32.6,27.6-2.4,30.2-16.8h1.2l-1.2,15.6h34.4v-65.6c0-36.2-14.8-40.6-50-40.6ZM373.7,130.2c-5.2,0-15,0-15-11.4s6.6-11,15-11,18.8.8,18.8,9.6-4.4,12.8-18.8,12.8h0Z"/>
      <path class="st0" d="M509.8,45c-6.4,0-11.8,1.2-16.2,3.8-4.4,2.6-7.8,6.8-10.2,12.8h-1.4v-15.4h-33.4v105h34.4v-63c0-8.6,2.4-16.8,12.8-16.8s9,8.2,9,15.6v5h31v-8.2c0-19.2-2-38.8-26-38.8h0Z"/>
      <rect class="st0" x="546.6" y="46.2" width="34.4" height="105"/>
      <rect class="st0" x="546.6" y="1.2" width="34.4" height="26.4"/>
      <path class="st0" d="M648.6,45c-43.8,0-52.4,10.8-52.4,53.8s9.4,53.6,52.4,53.6,52.6-10.4,52.6-53.6-8.6-53.8-52.6-53.8ZM649.2,126c-16.6,0-18.6-4.4-18.6-27.2s2-27.4,18.6-27.4,17.6,4.6,17.6,27.4-1.6,27.2-17.6,27.2h0Z"/>
      <rect class="st1" x="718.9" y="119.3" width="28.8" height="28.9" transform="translate(120.2 557.7) rotate(-45)"/>
    </g>
    <path class="st2" d="M598.5,203c-1.9-1.6-4.6-2.7-8.2-3.4-3.5-.6-8.1-1-13.7-1h-39.4v69.3h8.9v-25.9h30.3c5.7,0,10.3-.4,13.8-1.1,3.6-.7,6.3-1.9,8.3-3.6,2-1.7,3.3-3.9,4-6.6.7-2.6,1-5.8,1-9.5v-1.8c0-3.9-.3-7.2-1-9.8-.7-2.8-2-5-3.9-6.6h0ZM594.4,221.2c0,2.5-.2,4.5-.6,6.1-.4,1.4-1.1,2.5-2.3,3.2-1.2.8-3.2,1.4-5.7,1.7-2.6.3-6.2.5-10.6.5h-29.1v-24.9h29.1c4.4,0,8,.1,10.7.4,2.5.3,4.5.8,5.7,1.6,1.2.7,1.9,1.8,2.3,3.2.4,1.6.6,3.7.6,6.4v1.8h0Z"/>
    <polygon class="st2" points="683.8 198.6 656.7 258.8 629.6 198.6 619.4 198.6 651.4 267.9 662 267.9 693.9 198.6 683.8 198.6"/>
  </g>
</svg>