<?xml version="1.0" encoding="UTF-8"?><svg id="b" xmlns="http://www.w3.org/2000/svg" viewBox="0 0 753.72 267.03"><g id="c"><g id="d"><path d="M73.19,59.96l-16.6-1.18c-10.63-.76-16.4-1.2-16.4-13.2.04-8.39,1.8-12.8,23.4-12.8,15.99,0,22.39,0,22.39,15.4h38.39v-6.2C124.38.6,96.4,0,63.59,0,24.4,0,.2,2.8.2,45.79s21.59,42.79,58.57,45.39l8.8.6c18.79,1.2,20.99,1,20.99,14s-6.19,13.8-24.98,13.8-25.2-1.6-25.2-17.2H0c0,49.19,25.39,49.99,63.59,49.99,65.98,0,64.98-24.4,64.98-49.19,0-34.4-11-39.99-55.39-43.22Z" fill="#1d4997"/><path d="M198.94,44.99c-43.79,0-52.37,10.8-52.37,53.79s9.39,53.59,52.37,53.59,52.59-10.4,52.59-53.59-8.6-53.79-52.59-53.79ZM199.53,125.98c-16.6,0-18.6-4.4-18.6-27.2s2-27.39,18.6-27.39,17.59,4.6,17.59,27.39-1.56,27.22-17.59,27.22v-.02Z" fill="#1d4997"/><rect x="270.12" y="1.2" width="34.38" height="149.97" fill="#1d4997"/><path d="M376.88,44.99c-24.59,0-48.38-.2-48.38,32.4h34.38c0-9.4,5.4-11.39,14-11.39,15.01,0,15.61,6.19,15.61,15.99v16.6h-1.59c-3.8-12-18.79-11.8-28.59-11.8-24.79,0-37.95,7.8-37.95,33,0,26.79,14,32.59,37.95,32.59,12.01,0,27.6-2.4,30.2-16.8h1.2l-1.2,15.6h34.38v-65.6c-.02-36.19-14.81-40.59-50.01-40.59ZM373.68,130.17c-5.19,0-14.99,0-14.99-11.39,0-9.59,6.6-11,14.99-11,11.2,0,18.81.8,18.81,9.6,0,10.98-4.4,12.78-18.81,12.78Z" fill="#1d4997"/><path d="M509.84,44.99c-6.41,0-11.8,1.21-16.21,3.8-4.4,2.59-7.8,6.83-10.19,12.8h-1.4v-15.39h-33.4v104.97h34.41v-63c0-8.6,2.4-16.8,12.8-16.8,9.39,0,8.99,8.2,8.99,15.6v4.99h30.99v-8.2c0-19.18-1.99-38.78-25.99-38.78Z" fill="#1d4997"/><rect x="546.63" y="46.19" width="34.38" height="104.97" fill="#1d4997"/><rect x="546.63" y="1.2" width="34.38" height="26.4" fill="#1d4997"/><path d="M648.59,44.99c-43.79,0-52.37,10.8-52.37,53.79s9.39,53.59,52.37,53.59,52.59-10.4,52.59-53.59-8.6-53.79-52.59-53.79ZM649.19,125.98c-16.6,0-18.6-4.4-18.6-27.2s2-27.39,18.6-27.39,17.59,4.6,17.59,27.39-1.59,27.22-17.59,27.22v-.02Z" fill="#1d4997"/><rect x="718.89" y="119.34" width="28.85" height="28.85" transform="translate(120.2 557.71) rotate(-45)" fill="#1f8fd6"/></g><polygon points="455.55 249.43 422.33 197.13 422.19 196.9 408.96 196.9 408.96 267.03 419.57 267.03 419.57 212.53 451.62 262.68 459.87 262.68 491.03 212.66 491.03 267.03 501.64 267.03 501.64 196.9 488.4 196.9 455.55 249.43" fill="#1f8fd6"/><polygon points="534.07 236.7 580.6 236.7 580.6 225.85 534.07 225.85 534.07 207.75 582.63 207.75 582.63 196.9 523.46 196.9 523.46 267.03 583.67 267.03 583.67 256.19 534.07 256.19 534.07 236.7" fill="#1f8fd6"/><polygon points="681.13 196.9 648.27 249.43 615.06 197.13 614.91 196.9 601.69 196.9 601.69 267.03 612.3 267.03 612.3 212.53 644.35 262.68 652.6 262.68 683.75 212.66 683.75 267.03 694.37 267.03 694.37 196.9 681.13 196.9" fill="#1f8fd6"/></g></svg>