<?xml version="1.0" encoding="UTF-8"?><svg id="b" xmlns="http://www.w3.org/2000/svg" viewBox="0 0 43.07 42.84"><g id="c"><path d="M38.24,4.96c2.98,3.01,4.61,7,4.59,11.24s-1.69,8.21-4.71,11.19c-5.22,5.17-13.33,6.06-19.52,2.21l-12.04,11.93c-.72.71-1.66,1.07-2.61,1.07s-1.9-.37-2.62-1.1c-.7-.7-1.08-1.63-1.08-2.61.01-.99.4-1.92,1.1-2.62l12.04-11.92c-3.78-6.23-2.81-14.34,2.41-19.5C18.79,1.88,22.75.25,26.96.25h.08c4.24.02,8.21,1.69,11.2,4.71ZM41.35,16.19c.02-3.84-1.46-7.46-4.17-10.19-2.8-2.84-6.51-4.26-10.22-4.26s-7.32,1.38-10.12,4.16c-4.87,4.81-5.66,12.45-1.89,18.15.2.29.16.68-.09.93l-12.47,12.34c-.42.42-.65.98-.66,1.57,0,.59.23,1.15.65,1.57.86.87,2.27.88,3.14.02l12.46-12.34c.25-.25.64-.29.94-.09,5.66,3.83,13.3,3.11,18.16-1.71,2.74-2.7,4.25-6.31,4.27-10.15Z" fill="#1a5185"/><path d="M37.18,6c2.71,2.73,4.19,6.35,4.17,10.19s-1.53,7.45-4.27,10.15c-4.86,4.82-12.5,5.54-18.16,1.71-.3-.2-.69-.16-.94.09l-12.46,12.34c-.87.86-2.28.85-3.14-.02-.42-.42-.65-.98-.65-1.57.01-.59.24-1.15.66-1.57l12.47-12.34c.25-.25.29-.64.09-.93-3.77-5.7-2.98-13.34,1.89-18.15,2.8-2.78,6.46-4.16,10.12-4.16s7.42,1.42,10.22,4.26ZM40.24,16.19c.02-3.55-1.34-6.9-3.84-9.42s-5.83-3.92-9.37-3.93c-3.53-.02-6.9,1.34-9.42,3.84-4.26,4.22-5.16,10.81-2.19,16.01.57,1.01,1.28,1.94,2.1,2.78.83.83,1.75,1.55,2.75,2.13,2.08,1.21,4.39,1.8,6.68,1.8,3.42,0,6.8-1.31,9.36-3.84,2.52-2.5,3.92-5.83,3.93-9.37Z" fill="#94d5ff"/><path d="M36.4,6.77c2.5,2.52,3.86,5.87,3.84,9.42-.01,3.54-1.41,6.87-3.93,9.37-2.56,2.53-5.94,3.84-9.36,3.84-2.29,0-4.6-.59-6.68-1.8-1-.58-1.92-1.3-2.75-2.13-.82-.84-1.53-1.77-2.1-2.78-2.97-5.2-2.07-11.79,2.19-16.01,2.52-2.5,5.89-3.86,9.42-3.84,3.54,0,6.87,1.41,9.37,3.93ZM38.77,16.18c.01-3.16-1.2-6.13-3.42-8.37-1.53-1.54-3.4-2.61-5.45-3.12-.93-.24-1.9-.36-2.88-.37h-.06c-3.13,0-6.08,1.21-8.31,3.41-2.3,2.27-3.5,5.32-3.5,8.4,0,2,.51,4.01,1.55,5.83.51.9,1.14,1.73,1.87,2.47.74.74,1.56,1.37,2.45,1.89,1.46.85,3.04,1.36,4.65,1.53,3.46.38,7.01-.78,9.6-3.34,2.24-2.22,3.48-5.18,3.5-8.33Z" fill="#1a5185"/><path d="M31.72,14.17c.14.22.15.49.03.72l-5.17,10.05c-.13.25-.38.4-.65.4-.08,0-.15-.01-.22-.03-.35-.11-.56-.45-.52-.8l.8-5.93h-4.27c-.23,0-.45-.1-.59-.29-.14-.18-.18-.42-.12-.64l2.68-9.74c.08-.32.38-.54.71-.54h4.68c.24,0,.47.12.61.31.13.2.17.45.09.67l-1.91,5.46h3.22c.26,0,.5.14.63.36ZM27.23,20.46l2.65-5.17h-3.05c-.24,0-.46-.11-.6-.31-.14-.19-.17-.44-.09-.67l1.9-5.46h-3.08l-2.27,8.25h4.14c.22,0,.42.1.56.26s.2.37.18.58l-.34,2.52Z" fill="#1a5185"/></g></svg>