<?xml version="1.0" encoding="UTF-8"?><svg id="b" xmlns="http://www.w3.org/2000/svg" viewBox="0 0 53.41 61.86"><g id="c"><path d="M23.08,25.5l-15.5,15.5,13.72,14.25,6.87-6.87c1.59-1.59,4.83.82,7.07-1.41,2.24-2.24,2.32-2.32,2.32-2.32l2.33-2.33-16.81-16.81Z" fill="#fff" stroke="#2a5082" stroke-miterlimit="10" stroke-width="2"/><path d="M18.52,12.86c1.05-3.14.34-6.73-2.16-9.23C13.59.86,9.46.28,6.12,1.88l5.29,5.29-4.24,4.24L1.88,6.12c-1.6,3.34-1.02,7.47,1.75,10.24,2.5,2.5,6.09,3.21,9.23,2.16l32.72,32.68c1.56,1.56,4.09,1.56,5.66,0h0c1.56-1.56,1.56-4.09,0-5.66L18.52,12.86Z" fill="#a3d4ff" stroke="#2a5082" stroke-miterlimit="10" stroke-width="2"/><path d="M33.33,17.77l-2.12-2.12c-.78-.78-2.05-.78-2.83,0l-4.24,4.24,4.95,4.95,4.24-4.24c.78-.78.78-2.05,0-2.83Z" fill="#fff"/><path d="M24.14,19.89l4.24-4.24c.78-.78,2.05-.78,2.83,0l2.12,2.12c.78.78.78,2.05,0,2.83l-4.24,4.24" fill="none" stroke="#2a5082" stroke-miterlimit="10" stroke-width="2"/><path d="M39.69,21.31l-2.12-2.12c-.78-.78-2.05-.78-2.83,0l-5.66,5.66,4.95,4.95,5.66-5.66c.78-.78.78-2.05,0-2.83Z" fill="#fff"/><path d="M34.03,29.79l5.66-5.66c.78-.78.78-2.05,0-2.83l-2.12-2.12c-.78-.78-2.05-.78-2.83,0l-5.66,5.66" fill="none" stroke="#2a5082" stroke-miterlimit="10" stroke-width="2"/><path d="M44.75,28.98c.72-.72.67-1.94-.11-2.72l-2.12-2.12c-.78-.78-2-.83-2.72-.11l-5.87,5.87c-.72.72-.67,1.94.11,2.72l2.12,2.12c.78.78,2,.83,2.72.11l5.87-5.87Z" fill="#fff" stroke="#2a5082" stroke-miterlimit="10" stroke-width="2"/><path d="M27.29,18.81c-1.23-1.23-2.5-1.9-4.45-1.6-1.95.3-5.07.61-6.16,1.41s-2.06,4.78-2.06,7.85c0,3.71-.14,7.32-.92,8.1l-6.54,6.54,16.9-1.45c3.98-3.98,3.38-10.79.14-14.03.6.6,2.91,2.91,4.49,4.49,3.21,3.21,7.99.92,8.77-1.13-1.01-1.01-10.17-10.17-10.17-10.17Z" fill="#fff"/><path d="M7.16,41.11l6.54-6.54c.78-.78.92-4.38.92-8.1,0-3.06.96-7.04,2.06-7.85s4.21-1.12,6.16-1.41,3.22.37,4.45,1.6c0,0,9.16,9.16,10.17,10.17-.78,2.05-5.56,4.34-8.77,1.13-1.57-1.57-3.88-3.88-4.49-4.49,3.24,3.24,3.84,10.05-.14,14.03" fill="none" stroke="#2a5082" stroke-miterlimit="10" stroke-width="2"/><path d="M47.7,34.66c.66-.66.65-1.74-.02-2.41l-1.82-1.82c-.67-.67-1.75-.68-2.41-.02l-5.38,5.39c-.66.66-.65,1.74.02,2.41l1.82,1.82c.67.67,1.75.68,2.41.02l5.38-5.39Z" fill="#fff" stroke="#2a5082" stroke-miterlimit="10" stroke-width="2"/><rect x="1.13" y="43.76" width="25.45" height="9" transform="translate(38.17 4.33) rotate(44.99)" fill="#e9eaeb" stroke="#2a5082" stroke-miterlimit="10" stroke-width="2"/><line x1="46.58" y1="46.54" x2="48.58" y2="48.54" fill="none" stroke="#2a5082" stroke-miterlimit="10" stroke-width="2"/><line x1="7.58" y1="41.54" x2="10.58" y2="44.54" fill="none" stroke="#2a5082" stroke-miterlimit="10" stroke-width="2"/></g></svg>