<?xml version="1.0" encoding="UTF-8"?><svg id="b" xmlns="http://www.w3.org/2000/svg" xmlns:xlink="http://www.w3.org/1999/xlink" viewBox="0 0 123.55 178.44"><defs><clipPath id="d"><rect width="64.16" height="178.44" fill="none"/></clipPath></defs><g id="c"><circle cx="62.66" cy="81.42" r="60.88" transform="translate(-20.9 21.65) rotate(-16.85)" fill="#1f3a92"/><path d="M107.52,79.41c-.25-.15-.53-.24-.84-.24l-11.42-.18c-.58-4.62-2.1-8.94-4.36-12.78l10.28-6.29c.19-.12.34-.27.47-.43,3.41,5.93,5.5,12.7,5.88,19.93Z" fill="#0091db"/><path d="M106.65,82.58c.34,0,.65-.1.92-.27-.3,24.49-20.31,44.32-44.86,44.32s-44.88-20.13-44.88-44.88c0-1.34-.07-1.93.05-3.24l11.01,1.04,1.96.32,1.97.32c.11-1.14.3-2.27.55-3.37,2.81-12.7,13.83-22.35,27.19-23.05.52-.02,1.04-.04,1.56-.04.61,0,1.22.02,1.82.06,3.55.22,6.93,1.07,10.04,2.44,1.05.46,2.06.98,3.04,1.56,3.34,1.97,6.27,4.58,8.6,7.66.68.9,1.31,1.85,1.89,2.84,1.89,3.21,3.18,6.8,3.74,10.63.16,1.12.26,2.26.29,3.42l2,.03,1.99.03,11.12.18h.02Z" fill="#fff"/><path d="M62.35,24.33c31.38,0,56.9,25.53,56.9,56.91s-25.53,56.9-56.9,56.9S5.44,112.62,5.44,81.24,30.98,24.33,62.35,24.33ZM111.55,81.75c0-26.99-21.87-48.86-48.86-48.86-16.55,0-31.17,8.24-40.01,20.83l-.94,1.39c-5,7.67-7.91,16.81-7.91,26.64,0,26.98,21.87,48.86,48.86,48.86s48.86-21.87,48.86-48.86Z" fill="#fff"/><path d="M99.97,56.78c-.2.03-.4.1-.59.22l-10.37,6.36c-2.66-3.59-6-6.64-9.86-8.93l7.01-10.93c5.5,3.39,10.21,7.92,13.81,13.28Z" fill="#0091db"/><path d="M62.7,32.88c26.98,0,48.86,21.87,48.86,48.86s-21.87,48.86-48.86,48.86S13.84,108.73,13.84,81.75c0-9.83,2.91-18.97,7.91-26.64l.94-1.39c8.84-12.59,23.46-20.83,40.01-20.83ZM106.68,79.16c.31,0,.59.1.84.24-.38-7.23-2.47-14-5.88-19.93-.13.16-.28.31-.47.43l-10.28,6.29c2.26,3.84,3.78,8.16,4.36,12.78l11.42.18ZM107.56,82.3c-.27.17-.58.27-.92.27h-.02l-11.12-.18-1.99-.03-2-.03c-.03-1.15-.13-2.3-.29-3.42-.56-3.83-1.85-7.42-3.74-10.63-.58-.98-1.21-1.93-1.89-2.84-2.33-3.08-5.26-5.69-8.6-7.66-.98-.57-1.99-1.1-3.04-1.56-3.1-1.37-6.49-2.22-10.04-2.44-.6-.04-1.21-.06-1.82-.06-.52,0-1.05.02-1.56.04-13.36.71-24.38,10.35-27.19,23.05-.24,1.1-.43,2.22-.55,3.37l-1.97-.32-1.96-.32-11.01-1.04c-.12,1.31-.05,1.89-.05,3.24,0,24.75,20.13,44.88,44.88,44.88s44.56-19.83,44.86-44.32ZM99.39,57c.19-.11.39-.18.59-.22-3.59-5.36-8.31-9.89-13.81-13.28l-7.01,10.93c3.86,2.29,7.2,5.33,9.86,8.93l10.37-6.36ZM76.12,52.84l7.06-11c-5.8-2.99-12.33-4.75-19.25-4.94v12.91c4.33.23,8.44,1.3,12.19,3.03ZM60.53,49.8v-12.88c-6.41.31-12.47,1.97-17.91,4.7l5.84,11.05c3.71-1.66,7.78-2.67,12.07-2.87ZM45.42,54.22l-5.79-10.96c-5.16,3.1-9.63,7.21-13.17,12.05l9.17,6.66c.14.1.26.23.35.36,2.61-3.26,5.81-6.02,9.44-8.11ZM34.08,64.97c-.16-.06-.31-.13-.45-.24l-9.08-6.59c-3.03,4.87-5.14,10.37-6.11,16.24l10.99,1.8c.86-4.06,2.47-7.84,4.66-11.21Z" fill="#1f3a92"/><path d="M83.19,41.83l-7.06,11c-3.74-1.73-7.85-2.8-12.19-3.03v-12.91c6.91.19,13.45,1.95,19.25,4.94Z" fill="#0091db"/><path d="M60.53,36.92v12.88c-4.28.2-8.35,1.21-12.07,2.87l-5.84-11.05c5.44-2.73,11.49-4.4,17.91-4.7Z" fill="#0091db"/><path d="M39.63,43.26l5.79,10.96c-3.63,2.1-6.83,4.86-9.44,8.11-.1-.13-.21-.26-.35-.36l-9.17-6.66c3.54-4.84,8.02-8.95,13.17-12.05Z" fill="#0091db"/><path d="M33.63,64.73c.14.11.3.18.45.24-2.19,3.37-3.8,7.15-4.66,11.21l-10.99-1.8c.97-5.87,3.09-11.37,6.11-16.24l9.08,6.59Z" fill="#0091db"/><g clip-path="url(#d)"><circle cx="62.59" cy="81.42" r="60.88" transform="translate(-33.47 117.73) rotate(-73.15)" fill="#1f3a92"/><path d="M17.73,79.41c.25-.15.53-.24.84-.24l11.42-.18c.58-4.62,2.1-8.94,4.36-12.78l-10.28-6.29c-.19-.12-.34-.27-.47-.43-3.41,5.93-5.5,12.7-5.88,19.93Z" fill="#0091db"/><path d="M18.6,82.58c-.34,0-.65-.1-.92-.27.3,24.49,20.31,44.32,44.86,44.32s44.88-20.13,44.88-44.88c0-1.34.07-1.93-.05-3.24l-11.01,1.04-1.96.32-1.97.32c-.11-1.14-.3-2.27-.55-3.37-2.81-12.7-13.83-22.35-27.19-23.05-.52-.02-1.04-.04-1.56-.04-.61,0-1.22.02-1.82.06-3.55.22-6.93,1.07-10.04,2.44-1.05.46-2.06.98-3.04,1.56-3.34,1.97-6.27,4.58-8.6,7.66-.68.9-1.31,1.85-1.89,2.84-1.89,3.21-3.18,6.8-3.74,10.63-.16,1.12-.26,2.26-.29,3.42l-2,.03-1.99.03-11.12.18h-.02Z" fill="#fff"/><path d="M62.9,24.33c-31.38,0-56.9,25.53-56.9,56.91s25.53,56.9,56.9,56.9,56.91-25.53,56.91-56.9-25.53-56.91-56.91-56.91ZM13.7,81.75c0-26.99,21.87-48.86,48.86-48.86,16.55,0,31.17,8.24,40.01,20.83l.94,1.39c5,7.67,7.91,16.81,7.91,26.64,0,26.98-21.87,48.86-48.86,48.86S13.7,108.73,13.7,81.75Z" fill="#fff"/><path d="M25.28,56.78c.2.03.4.1.59.22l10.37,6.36c2.66-3.59,6-6.64,9.86-8.93l-7.01-10.93c-5.5,3.39-10.21,7.92-13.81,13.28Z" fill="#0091db"/><path d="M62.55,32.88c-26.98,0-48.86,21.87-48.86,48.86s21.87,48.86,48.86,48.86,48.86-21.87,48.86-48.86c0-9.83-2.91-18.97-7.91-26.64l-.94-1.39c-8.84-12.59-23.46-20.83-40.01-20.83ZM18.58,79.16c-.31,0-.59.1-.84.24.38-7.23,2.47-14,5.88-19.93.13.16.28.31.47.43l10.28,6.29c-2.26,3.84-3.78,8.16-4.36,12.78l-11.42.18ZM17.69,82.3c.27.17.58.27.92.27h.02l11.12-.18,1.99-.03,2-.03c.03-1.15.13-2.3.29-3.42.56-3.83,1.85-7.42,3.74-10.63.58-.98,1.21-1.93,1.89-2.84,2.33-3.08,5.26-5.69,8.6-7.66.98-.57,1.99-1.1,3.04-1.56,3.1-1.37,6.49-2.22,10.04-2.44.6-.04,1.21-.06,1.82-.06.52,0,1.05.02,1.56.04,13.36.71,24.38,10.35,27.19,23.05.24,1.1.43,2.22.55,3.37l1.97-.32,1.96-.32,11.01-1.04c.12,1.31.05,1.89.05,3.24,0,24.75-20.13,44.88-44.88,44.88s-44.56-19.83-44.86-44.32ZM25.87,57c-.19-.11-.39-.18-.59-.22,3.59-5.36,8.31-9.89,13.81-13.28l7.01,10.93c-3.86,2.29-7.2,5.33-9.86,8.93l-10.37-6.36ZM49.13,52.84l-7.06-11c5.8-2.99,12.33-4.75,19.25-4.94v12.91c-4.33.23-8.44,1.3-12.19,3.03ZM64.72,49.8v-12.88c6.41.31,12.47,1.97,17.91,4.7l-5.84,11.05c-3.71-1.66-7.78-2.67-12.07-2.87ZM79.83,54.22l5.79-10.96c5.16,3.1,9.63,7.21,13.17,12.05l-9.17,6.66c-.14.1-.26.23-.35.36-2.61-3.26-5.81-6.02-9.44-8.11ZM91.17,64.97c.16-.06.31-.13.45-.24l9.08-6.59c3.03,4.87,5.14,10.37,6.11,16.24l-10.99,1.8c-.86-4.06-2.47-7.84-4.66-11.21Z" fill="#1f3a92"/><path d="M42.07,41.83l7.06,11c3.74-1.73,7.85-2.8,12.19-3.03v-12.91c-6.91.19-13.45,1.95-19.25,4.94Z" fill="#0091db"/><path d="M64.72,36.92v12.88c4.28.2,8.35,1.21,12.07,2.87l5.84-11.05c-5.44-2.73-11.49-4.4-17.91-4.7Z" fill="#0091db"/><path d="M85.62,43.26l-5.79,10.96c3.63,2.1,6.83,4.86,9.44,8.11.1-.13.21-.26.35-.36l9.17-6.66c-3.54-4.84-8.02-8.95-13.17-12.05Z" fill="#0091db"/><path d="M91.63,64.73c-.14.11-.3.18-.45.24,2.19,3.37,3.8,7.15,4.66,11.21l10.99-1.8c-.97-5.87-3.09-11.37-6.11-16.24l-9.08,6.59Z" fill="#0091db"/></g><g id="e"><path d="M37.92,93.47l-1.36-.1c-.87-.06-1.34-.1-1.34-1.08,0-.69.15-1.05,1.92-1.05,1.31,0,1.84,0,1.84,1.26h3.15v-.51c0-3.39-2.29-3.44-4.98-3.44-3.21,0-5.2.23-5.2,3.75s1.77,3.51,4.8,3.72l.72.05c1.54.1,1.72.08,1.72,1.15s-.51,1.13-2.05,1.13-2.07-.13-2.07-1.41h-3.15c0,4.03,2.08,4.1,5.21,4.1,5.41,0,5.33-2,5.33-4.03,0-2.82-.9-3.28-4.54-3.54Z" fill="#1f3a92"/><path d="M48.23,92.24c-3.59,0-4.29.89-4.29,4.41s.77,4.39,4.29,4.39,4.31-.85,4.31-4.39-.7-4.41-4.31-4.41ZM48.28,98.88c-1.36,0-1.52-.36-1.52-2.23s.16-2.25,1.52-2.25,1.44.38,1.44,2.25-.13,2.23-1.44,2.23h0Z" fill="#1f3a92"/><rect x="54.06" y="88.65" width="2.82" height="12.29" fill="#1f3a92"/><path d="M62.82,92.24c-2.02,0-3.97-.02-3.97,2.66h2.82c0-.77.44-.93,1.15-.93,1.23,0,1.28.51,1.28,1.31v1.36h-.13c-.31-.98-1.54-.97-2.34-.97-2.03,0-3.11.64-3.11,2.7,0,2.2,1.15,2.67,3.11,2.67.98,0,2.26-.2,2.48-1.38h.1l-.1,1.28h2.82v-5.38c0-2.97-1.21-3.33-4.1-3.33ZM62.55,99.22c-.43,0-1.23,0-1.23-.93,0-.79.54-.9,1.23-.9.92,0,1.54.07,1.54.79,0,.9-.36,1.05-1.54,1.05Z" fill="#1f3a92"/><path d="M73.72,92.24c-.53,0-.97.1-1.33.31s-.64.56-.84,1.05h-.12v-1.26h-2.74v8.6h2.82v-5.16c0-.7.2-1.38,1.05-1.38.77,0,.74.67.74,1.28v.41h2.54v-.67c0-1.57-.16-3.18-2.13-3.18Z" fill="#1f3a92"/><rect x="76.73" y="92.34" width="2.82" height="8.6" fill="#1f3a92"/><rect x="76.73" y="88.65" width="2.82" height="2.16" fill="#1f3a92"/><path d="M85.09,92.24c-3.59,0-4.29.89-4.29,4.41s.77,4.39,4.29,4.39,4.31-.85,4.31-4.39-.7-4.41-4.31-4.41ZM85.14,98.88c-1.36,0-1.52-.36-1.52-2.23s.16-2.25,1.52-2.25,1.44.38,1.44,2.25-.13,2.23-1.44,2.23h0Z" fill="#1f3a92"/><rect x="90.85" y="98.34" width="2.36" height="2.36" transform="translate(-43.41 94.23) rotate(-45)" fill="#0091db"/></g><path d="M62.07,70.69c-.36,0-.72.04-1.07.09-.05-.12-.12-.25-.19-.37l-4.64-6.93c-.72-1.07-2.17-1.36-3.25-.64-1.07.72-1.36,2.17-.64,3.25l4.64,6.93s.03.03.05.05c-.97,1.16-1.56,2.65-1.56,4.28,0,3.68,2.99,6.67,6.67,6.67s6.67-2.99,6.67-6.67-2.99-6.67-6.67-6.67ZM62.07,80.68c-1.83,0-3.33-1.49-3.33-3.33s1.49-3.33,3.33-3.33,3.33,1.49,3.33,3.33-1.49,3.33-3.33,3.33Z" fill="#1f3a92"/></g></svg>