<?xml version="1.0" encoding="UTF-8"?><svg id="b" xmlns="http://www.w3.org/2000/svg" viewBox="0 0 51.41 63.92"><g id="c"><path d="M13.48,31.55H.96c-.53,0-.96.43-.96.96v.53c0,.53.43.96.96.96h2.61s-.01.05-.01.07v1.45c0,.53.43.96.96.96h.53c.53,0,.96-.43.96-.96v-1.45s-.01-.05-.01-.07h7.49c.53,0,.96-.43.96-.96v-.53c0-.53-.43-.96-.96-.96Z" fill="#239fda"/><path d="M50.45,31.55h-12.52c-.53,0-.96.43-.96.96v.53c0,.53.43.96.96.96h7.49s-.01.05-.01.07v1.45c0,.53.43.96.96.96h.53c.53,0,.96-.43.96-.96v-1.45s-.01-.05-.01-.07h2.61c.53,0,.96-.43.96-.96v-.53c0-.53-.43-.96-.96-.96Z" fill="#239fda"/><path d="M43.3,13.19v1.45c0,.53.43.96.96.96h.53c.53,0,.96-.43.96-.96v-1.45s-.01-.05-.01-.07h2.61c.53,0,.96-.43.96-.96v-.53c0-.53-.43-.96-.96-.96h-13.48c-.53,0-.96.43-.96.96v.53c0,.53.43.96.96.96h8.45s-.01.05-.01.07Z" fill="#239fda"/><path d="M16.61,10.66H3.12c-.53,0-.96.43-.96.96v.53c0,.53.43.96.96.96h2.61s-.01.05-.01.07v1.45c0,.53.43.96.96.96h.53c.53,0,.96-.43.96-.96v-1.45s-.01-.05-.01-.07h8.45c.53,0,.96-.43.96-.96v-.53c0-.53-.43-.96-.96-.96Z" fill="#239fda"/><path d="M39.14,63.92H12.19c-.37,0-.71-.16-.95-.44-.24-.28-.34-.65-.28-1.01L20.67,1.05c.1-.61.62-1.05,1.23-1.05h8.15c.62,0,1.15.45,1.24,1.07l9.09,61.42c.05.36-.05.72-.29,1-.24.28-.58.43-.95.43ZM13.65,61.42h24.04L28.97,2.5h-6l-9.32,58.92Z" fill="#dfe4e8"/><polygon points="31.3 13.05 19.08 13.05 19.22 10.55 31.3 10.55 31.3 13.05" fill="#dfe4e8"/><rect x="16.26" y="31.65" width="18.59" height="2.5" fill="#dfe4e8"/><rect x="26.29" y="10.57" width="2.5" height="23.45" transform="translate(-7.61 17.81) rotate(-31.71)" fill="#dfe4e8"/><rect x="27.02" y="29.74" width="2.5" height="35.67" transform="translate(-22.03 24.49) rotate(-34.62)" fill="#dfe4e8"/><rect x="12.68" y="21.15" width="23.45" height="2.5" transform="translate(-7.48 31.39) rotate(-58.28)" fill="#dfe4e8"/><rect x="5.84" y="46.43" width="35.67" height="2.5" transform="translate(-29.02 40.09) rotate(-55.39)" fill="#dfe4e8"/><rect x="3.18" y="61.52" width="45.07" height="2.4" rx=".93" ry=".93" fill="#dfe4e8"/></g></svg>