<?xml version="1.0" encoding="UTF-8"?><svg id="b" xmlns="http://www.w3.org/2000/svg" viewBox="0 0 71.28 69.41"><g id="c"><path d="M44.17,46.85h-16.68c-.79,0-1.43-.65-1.43-1.43l1.85-7.18c0-.79.65-1.43,1.43-1.43h12.95c.79,0,1.43.65,1.43,1.43l1.88,7.18c0,.79-.65,1.43-1.43,1.43Z" fill="#22366d"/><path d="M22.51,46.85h-14.26c-.79,0-1.43-.64-1.43-1.43l3.51-7.16c.32-.83.74-1.47,1.53-1.47h12.37c.79,0,1.43.65,1.43,1.43l-1.71,7.18c0,.79-.65,1.43-1.43,1.43Z" fill="#22366d"/><path d="M49.09,46.85h14.26c.79,0,1.43-.64,1.43-1.43l-3.51-7.16c-.32-.83-.74-1.47-1.53-1.47h-12.37c-.79,0-1.43.65-1.43,1.43l1.71,7.18c0,.79.65,1.43,1.43,1.43Z" fill="#22366d"/><path d="M47.33,60.92h-22.8c-.95,0-1.73-.78-1.73-1.73l2.23-8.66c0-.95.78-1.73,1.73-1.73h18.3c.95,0,1.73.78,1.73,1.73l2.27,8.66c0,.95-.78,1.73-1.73,1.73Z" fill="#22366d"/><path d="M18.93,60.92H1.73C.78,60.93,0,60.15,0,59.2l4.23-8.63c.39-1,.89-1.77,1.84-1.77h14.92c.95,0,1.73.78,1.73,1.73l-2.06,8.66c0,.95-.78,1.73-1.73,1.73Z" fill="#22366d"/><path d="M52.35,60.92h17.2c.95.01,1.73-.77,1.73-1.72l-4.23-8.63c-.39-1-.89-1.77-1.84-1.77h-14.92c-.95,0-1.73.78-1.73,1.73l2.06,8.66c0,.95.78,1.73,1.73,1.73Z" fill="#22366d"/><rect x="25.83" y="66.83" width="20.09" height="2.58" rx="1.29" ry="1.29" fill="#22366d"/><rect x="34.65" y="62.6" width="2.44" height="6.71" rx=".24" ry=".24" fill="#22366d"/><circle cx="35.92" cy="16.34" r="6.71" fill="#239fda"/><rect x="34.86" y="0" width="2.15" height="6.19" rx=".74" ry=".74" fill="#239fda"/><rect x="34.86" y="26.15" width="2.15" height="6.19" rx=".74" ry=".74" fill="#239fda"/><rect x="21.8" y="13.16" width="2.15" height="6.19" rx=".74" ry=".74" transform="translate(6.63 39.13) rotate(-90)" fill="#239fda"/><rect x="47.95" y="13.16" width="2.15" height="6.19" rx=".74" ry=".74" transform="translate(32.77 65.28) rotate(-90)" fill="#239fda"/><rect x="25.57" y="3.65" width="2.15" height="6.19" rx=".74" ry=".74" transform="translate(3.04 20.81) rotate(-45)" fill="#239fda"/><rect x="44.07" y="3.68" width="2.15" height="6.19" rx=".74" ry=".74" transform="translate(72.28 43.48) rotate(-135)" fill="#239fda"/><rect x="44.07" y="22.75" width="2.15" height="6.19" rx=".74" ry=".74" transform="translate(95.34 12.19) rotate(135)" fill="#239fda"/><rect x="25.57" y="22.72" width="2.15" height="6.19" rx=".74" ry=".74" transform="translate(26.06 -11.28) rotate(45)" fill="#239fda"/></g></svg>