<?xml version="1.0" encoding="UTF-8"?><svg id="b" xmlns="http://www.w3.org/2000/svg" xmlns:xlink="http://www.w3.org/1999/xlink" viewBox="0 0 151.17 140.41"><defs><clipPath id="d"><rect y="60.68" width="151.17" height="77.63" fill="none"/></clipPath><clipPath id="e"><rect y="60.68" width="151.17" height="77.63" fill="none"/></clipPath></defs><g id="c"><path d="M76.54,22.03c14.04,0,18.69-12.81,19.18-19.58.09-1.25-.85-2.34-2.1-2.44-1.24-.09-2.35.85-2.44,2.1-.05.63-1.34,15.36-14.63,15.36S60.84,2.62,60.76,1.99c-.08-.61-.39-1.14-.88-1.52-.48-.37-1.08-.53-1.68-.45-1.25.16-2.13,1.31-1.97,2.55.03.19,2.78,19.45,20.3,19.45Z" fill="#f95900"/><path d="M37.53,5.54h13.96c1.26,0,2.28-1.02,2.28-2.28s-1.02-2.28-2.28-2.28h-13.96c-1.26,0-2.28,1.02-2.28,2.28s1.02,2.28,2.28,2.28Z" fill="#f95900"/><path d="M55.98,11.08c-.5-1.15-1.84-1.69-3-1.19l-22.05,9.5c-.56.24-.99.69-1.22,1.25-.22.57-.22,1.19.03,1.74.36.84,1.18,1.38,2.09,1.38.31,0,.61-.06.9-.19l22.05-9.5c1.15-.5,1.69-1.84,1.19-3Z" fill="#f95900"/><path d="M61.54,20.48c0-.61-.24-1.18-.68-1.61-.89-.88-2.34-.88-3.22.02l-8.7,8.79c-.43.43-.66,1.01-.66,1.62,0,.61.24,1.18.68,1.61.43.42,1,.66,1.6.66s1.19-.24,1.62-.68l8.7-8.79c.43-.43.66-1.01.66-1.62Z" fill="#f95900"/><path d="M67.45,22.77c-.57-.22-1.19-.21-1.74.03-.56.24-.99.69-1.21,1.26l-8.88,22.5c-.46,1.17.12,2.5,1.29,2.96.27.11.55.16.83.16.94,0,1.78-.57,2.12-1.44l8.88-22.5c.46-1.17-.12-2.5-1.28-2.96Z" fill="#f95900"/><path d="M76.16,24.4c-1.26,0-2.28,1.02-2.28,2.28v13.63c0,1.26,1.02,2.28,2.28,2.28s2.28-1.02,2.28-2.28v-13.63c0-1.26-1.02-2.28-2.28-2.28Z" fill="#f95900"/><path d="M100.83,5.54h13.96c1.26,0,2.28-1.02,2.28-2.28s-1.02-2.28-2.28-2.28h-13.96c-1.26,0-2.28,1.02-2.28,2.28s1.02,2.28,2.28,2.28Z" fill="#f95900"/><path d="M122.6,20.64c-.22-.57-.66-1.01-1.22-1.25l-22.06-9.5c-1.16-.5-2.5.04-2.99,1.19-.5,1.15.04,2.5,1.19,3l22.05,9.5c.29.12.59.19.9.19.91,0,1.73-.54,2.09-1.38.24-.56.25-1.18.03-1.75Z" fill="#f95900"/><path d="M94.67,18.89c-.43-.43-1-.67-1.61-.68-.6.02-1.18.23-1.61.66s-.67,1-.68,1.61c0,.61.23,1.18.66,1.62l8.7,8.79c.43.44,1.01.68,1.62.68s1.17-.23,1.6-.66c.43-.43.67-1,.68-1.61,0-.61-.23-1.18-.66-1.62l-8.7-8.79Z" fill="#f95900"/><path d="M87.82,24.05c-.46-1.17-1.79-1.75-2.96-1.28-.57.22-1.01.65-1.25,1.21-.24.56-.25,1.18-.03,1.74l8.87,22.5c.35.88,1.18,1.44,2.12,1.44.29,0,.57-.05.84-.16,1.17-.46,1.75-1.79,1.28-2.96l-8.87-22.5Z" fill="#f95900"/><g clip-path="url(#d)"><g clip-path="url(#e)"><path d="M150.97,117.69c.33.76.25,1.63-.21,2.32-.46.7-1.23,1.11-2.06,1.11h-69.74v14.73c0,1.36-1.1,2.46-2.46,2.46s-2.47-1.1-2.47-2.46v-14.73H2.46c-.82,0-1.6-.41-2.06-1.1-.46-.69-.53-1.56-.21-2.32l14.37-33.78s0,0,0-.01l9.24-21.73c.38-.91,1.28-1.5,2.27-1.5h98.81c.99,0,1.88.59,2.27,1.49l23.82,55.52ZM144.97,116.19l-12.39-28.86h-33.75l3.77,28.86h42.37ZM130.47,82.41l-7.21-16.8h-27.26l2.19,16.8h32.28ZM97.63,116.19l-3.77-28.86h-34.19l-2.91,28.86h40.87ZM93.23,82.41l-2.19-16.8h-29.16l-1.69,16.8h33.05ZM55.22,82.41l1.69-16.8h-29.2l-7.15,16.8h34.66ZM51.81,116.19l2.91-28.86H18.47l-12.28,28.86h45.62Z" fill="#004a9b"/></g></g><polygon points="86.55 140.27 65.89 140.41 73.87 133.47 79.18 133.47 86.55 140.27" fill="#004a9b"/></g></svg>