<?xml version="1.0" encoding="UTF-8"?><svg id="b" xmlns="http://www.w3.org/2000/svg" viewBox="0 0 384.33 152.37"><g id="c"><rect x="160.81" y="109.3" width="28.85" height="28.85" transform="translate(-36.16 160.15) rotate(-45)" fill="#e56b2e"/><path d="M73.19,59.96l-16.6-1.18c-10.63-.76-16.4-1.2-16.4-13.2.04-8.39,1.8-12.8,23.4-12.8,15.99,0,22.39,0,22.39,15.4h38.39v-6.2C124.38.6,96.4,0,63.59,0,24.4,0,.2,2.8.2,45.79s21.59,42.79,58.57,45.39l8.8.6c18.79,1.2,20.99,1,20.99,14s-6.19,13.8-24.98,13.8-25.2-1.6-25.2-17.2H0c0,49.19,25.39,49.99,63.59,49.99,65.98,0,64.98-24.4,64.98-49.19,0-34.4-11-39.99-55.39-43.22Z" fill="#1d4997"/><path d="M280.41,84.61c-1.24-.78-3.17-1.31-5.72-1.57-2.64-.27-6.22-.41-10.66-.41h-29.14v24.85h29.14c4.43,0,8.01-.17,10.64-.5,2.55-.32,4.47-.9,5.72-1.72,1.17-.77,1.93-1.84,2.31-3.25.42-1.55.64-3.59.64-6.08v-1.75c0-2.66-.21-4.8-.64-6.36-.38-1.42-1.14-2.47-2.3-3.2Z" fill="#e56b2e"/><path d="M287.35,77.75c-1.88-1.59-4.63-2.73-8.19-3.39-3.47-.65-8.09-.98-13.74-.98h-39.42v69.27h8.89v-25.94h30.31c5.65,0,10.29-.37,13.77-1.09,3.56-.74,6.34-1.94,8.27-3.57,1.97-1.67,3.32-3.9,4.01-6.63.66-2.6.99-5.8.99-9.5v-1.75c0-3.87-.33-7.17-.97-9.8-.68-2.76-1.99-4.99-3.92-6.62ZM283.35,95.92c0,2.49-.21,4.53-.64,6.08-.39,1.42-1.14,2.48-2.31,3.25-1.24.82-3.17,1.4-5.72,1.72-2.63.33-6.21.5-10.64.5h-29.14v-24.85h29.14c4.44,0,8.02.14,10.66.41,2.55.26,4.47.79,5.72,1.57,1.16.73,1.91,1.77,2.3,3.2.42,1.56.64,3.7.64,6.36v1.75Z" fill="#e56b2e"/><path d="M286.7,78.51c-1.74-1.48-4.34-2.54-7.72-3.17-3.41-.64-7.97-.96-13.55-.96h-38.42v67.27h6.89v-25.94h31.31c5.58,0,10.15-.36,13.57-1.07,3.4-.7,6.03-1.83,7.82-3.35,1.81-1.53,3.05-3.59,3.69-6.11.64-2.52.96-5.64.96-9.26v-1.75c0-3.79-.32-7.01-.94-9.56-.62-2.55-1.83-4.6-3.59-6.09ZM284.35,95.92c0,2.58-.23,4.71-.67,6.34-.45,1.66-1.35,2.91-2.73,3.83-1.37.91-3.44,1.54-6.14,1.88-2.68.34-6.3.51-10.77.51h-30.14v-26.85h30.14c4.47,0,8.09.14,10.76.42,2.7.28,4.77.86,6.15,1.72,1.38.87,2.28,2.11,2.73,3.79.45,1.65.67,3.88.67,6.62v1.75Z" fill="#e56b2e"/><path d="M279.88,85.45c-1.11-.7-2.89-1.18-5.29-1.42-2.6-.27-6.15-.41-10.56-.41h-28.14v22.85h28.14c4.38,0,7.92-.17,10.52-.49,2.4-.3,4.18-.83,5.29-1.56.97-.64,1.57-1.49,1.9-2.68.4-1.46.6-3.41.6-5.81v-1.75c0-2.57-.2-4.63-.6-6.1-.32-1.19-.91-2.02-1.86-2.61Z" fill="#fff"/><path d="M280.95,83.76c-1.37-.86-3.44-1.44-6.15-1.72-2.67-.28-6.29-.42-10.76-.42h-30.14v26.85h30.14c4.47,0,8.09-.17,10.77-.51,2.7-.34,4.77-.97,6.14-1.88,1.38-.91,2.27-2.16,2.73-3.83.45-1.63.67-3.76.67-6.34v-1.75c0-2.75-.23-4.98-.67-6.62-.45-1.68-1.35-2.92-2.73-3.79ZM282.35,95.92c0,2.4-.2,4.35-.6,5.81-.32,1.19-.93,2.04-1.9,2.68-1.11.74-2.89,1.26-5.29,1.56-2.59.33-6.13.49-10.52.49h-28.14v-22.85h28.14c4.4,0,7.95.14,10.56.41,2.4.25,4.18.73,5.29,1.42.95.6,1.54,1.43,1.86,2.61.4,1.48.6,3.53.6,6.1v1.75Z" fill="#e56b2e"/><path d="M292.24,84.13c-.73-2.97-2.15-5.37-4.24-7.14h0c-2.01-1.7-4.92-2.92-8.65-3.62-3.53-.66-8.21-.99-13.92-.99h-40.42v71.27h10.89v-25.94h29.31c5.72,0,10.42-.37,13.97-1.11,3.73-.77,6.66-2.05,8.71-3.78,2.13-1.81,3.59-4.21,4.33-7.15.68-2.68,1.02-5.96,1.02-9.75v-1.75c0-3.95-.34-7.33-1-10.04ZM291.24,95.92c0,3.62-.32,6.73-.96,9.26-.64,2.52-1.88,4.58-3.69,6.11-1.79,1.52-4.42,2.65-7.82,3.35-3.42.71-7.98,1.07-13.57,1.07h-31.31v25.94h-6.89v-67.27h38.42c5.59,0,10.15.32,13.55.96,3.38.63,5.98,1.7,7.72,3.17,1.76,1.49,2.97,3.54,3.59,6.09.62,2.55.94,5.77.94,9.56v1.75Z" fill="#e56b2e"/><polygon points="372.71 73.38 345.6 133.59 318.49 73.38 308.31 73.38 340.29 142.65 350.91 142.65 382.77 73.38 372.71 73.38" fill="#e56b2e"/><path d="M351.55,143.65h-11.89l-32.9-71.27h12.39l26.46,58.78,26.46-58.78h12.27l-32.78,71.27ZM340.93,141.65h9.33l30.94-67.27h-7.85l-27.76,61.65-27.76-61.65h-7.97l31.06,67.27Z" fill="#e56b2e"/></g></svg>