<?xml version="1.0" encoding="UTF-8"?><svg id="b" xmlns="http://www.w3.org/2000/svg" viewBox="0 0 509.91 152.37"><g id="c"><rect x="160.81" y="109.51" width="28.85" height="28.85" transform="translate(-36.31 160.21) rotate(-45)" fill="#1f8fd6"/><path d="M73.19,59.96l-16.6-1.18c-10.63-.76-16.4-1.2-16.4-13.2.04-8.39,1.8-12.8,23.4-12.8,15.99,0,22.39,0,22.39,15.4h38.39v-6.2C124.38.6,96.4,0,63.59,0,24.4,0,.2,2.8.2,45.79s21.59,42.79,58.57,45.39l8.8.6c18.79,1.2,20.99,1,20.99,14s-6.19,13.8-24.98,13.8-25.2-1.6-25.2-17.2H0c0,49.19,25.39,49.99,63.59,49.99,65.98,0,64.98-24.4,64.98-49.19,0-34.4-11-39.99-55.39-43.22Z" fill="#1d4997"/><polygon points="271.1 127.42 237.46 74.45 225.01 74.45 225.01 143.58 234.62 143.58 234.62 87.87 267.45 139.23 275.14 139.23 307.07 87.96 307.07 143.58 316.69 143.58 316.69 74.45 304.23 74.45 271.1 127.42" fill="#1f8fd6" stroke="#1f8fd6" stroke-miterlimit="10"/><polygon points="349.12 113.25 395.65 113.25 395.65 103.4 349.12 103.4 349.12 84.29 397.68 84.29 397.68 74.45 339.51 74.45 339.51 143.58 398.71 143.58 398.71 133.74 349.12 133.74 349.12 113.25" fill="#1f8fd6" stroke="#1f8fd6" stroke-miterlimit="10"/><polygon points="496.95 74.45 463.82 127.42 430.19 74.45 417.73 74.45 417.73 143.58 427.35 143.58 427.35 87.87 460.17 139.23 467.87 139.23 499.8 87.96 499.8 143.58 509.41 143.58 509.41 74.45 496.95 74.45" fill="#1f8fd6" stroke="#1f8fd6" stroke-miterlimit="10"/></g></svg>