<?xml version="1.0" encoding="UTF-8"?><svg id="b" xmlns="http://www.w3.org/2000/svg" viewBox="0 0 562.8 152.37"><g id="c"><rect x="160.81" y="109.29" width="28.85" height="28.85" transform="translate(-36.15 160.14) rotate(-45)" fill="#179c53"/><path d="M73.19,59.96l-16.6-1.18c-10.63-.76-16.4-1.2-16.4-13.2.04-8.39,1.8-12.8,23.4-12.8,15.99,0,22.39,0,22.39,15.4h38.39v-6.2C124.38.6,96.4,0,63.59,0,24.4,0,.2,2.8.2,45.79s21.59,42.79,58.57,45.39l8.8.6c18.79,1.2,20.99,1,20.99,14s-6.19,13.8-24.98,13.8-25.2-1.6-25.2-17.2H0c0,49.19,25.39,49.99,63.59,49.99,65.98,0,64.98-24.4,64.98-49.19,0-34.4-11-39.99-55.39-43.22Z" fill="#1d4997"/><path d="M287.94,104.42c1.07-.82,1.99-1.87,2.74-3.14,1.75-2.93,2.63-6.64,2.63-11.02,0-4.86-.73-8.56-2.23-11.31-1.56-2.88-3.99-4.91-7.24-6.05-2.98-1.03-6.77-1.55-11.28-1.55h-47.55v72.2h44.39c4.77,0,8.83-.3,12.09-.88,3.44-.62,6.25-1.75,8.35-3.39,2.16-1.7,3.71-4.08,4.6-7.06.85-2.81,1.26-6.27,1.26-10.56,0-5.04-1.04-9.31-3.08-12.68-1.16-1.95-2.73-3.47-4.67-4.55ZM236.16,99.75v-17.3h36.39c2.8,0,4.99.18,6.51.52,1.1.25,1.81.77,2.25,1.61.38.76.84,2.36.84,5.67,0,4.19-.75,6.08-1.39,6.93-.86,1.15-2.21,1.84-4.13,2.09-2.37.32-5.46.48-9.18.48h-31.3ZM280.17,112.38c1.36.6,2.39,1.55,3.15,2.92.8,1.43,1.21,3.56,1.21,6.34s-.23,5.04-.69,6.58c-.39,1.27-.99,2.14-1.85,2.68-1,.63-2.46,1.03-4.36,1.21-2.19.2-4.96.31-8.24.31h-33.23v-21.56h31.3c2.58,0,5.03.09,7.29.26,2.07.16,3.9.58,5.43,1.26Z" fill="#179c53"/><polygon points="325.9 112.28 372.81 112.28 372.81 101.17 325.9 101.17 325.9 82.45 374.86 82.45 374.86 71.33 314.74 71.33 314.74 143.54 375.9 143.54 375.9 132.42 325.9 132.42 325.9 112.28" fill="#179c53"/><path d="M465.99,105.46c-1.84-1.69-4.44-2.85-7.94-3.56-3.22-.66-7.55-1.05-12.86-1.14l-22.18-.36c-3.98-.06-7.16-.22-9.43-.49-2.53-.31-3.76-.84-4.35-1.24-.7-.46-1.12-1.12-1.33-2.07-.29-1.31-.44-3.11-.44-5.34,0-2.64.21-4.72.62-6.17.31-1.11.87-1.85,1.75-2.33.76-.41,2.29-.96,5.25-1.18,2.55-.2,6.09-.3,10.5-.3h15.55c3.62,0,6.68.03,9.1.09,2.15.05,3.83.38,5,.97.95.49,1.65,1.46,2.12,2.96.57,1.83.85,4.66.85,8.4v2.01h11.16v-2.01c0-5.38-.45-9.52-1.36-12.64-.98-3.36-2.67-5.91-5.03-7.56-2.25-1.58-5.27-2.59-8.96-3.01-3.41-.39-7.74-.58-12.88-.58h-15.92c-5.69,0-10.39.3-13.98.89-3.83.62-6.86,1.75-9.03,3.35-2.27,1.67-3.86,4.02-4.72,6.97-.78,2.7-1.18,6.12-1.18,10.15,0,3.66.29,6.79.85,9.32.63,2.77,1.91,5.03,3.81,6.72,1.87,1.65,4.47,2.81,7.94,3.54,3.23.68,7.5,1.07,12.7,1.16l20.68.36c4.32.09,7.81.24,10.35.46,2.79.25,4.16.76,4.8,1.14.74.45,1.19,1.11,1.42,2.08.32,1.38.48,3.32.48,5.77,0,2.81-.17,5.08-.51,6.76-.26,1.33-.8,2.29-1.66,2.96-.65.51-2.01,1.19-4.76,1.55-2.46.33-5.91.5-10.26.5h-17.05c-3.85,0-7.1-.09-9.64-.28-2.19-.17-3.88-.65-5-1.42-1.01-.71-1.75-1.97-2.2-3.76-.53-2.12-.8-5.21-.8-9.19v-2.01h-11.16v2.01c0,5.48.48,9.97,1.41,13.33,1.01,3.6,2.72,6.38,5.11,8.26,2.31,1.82,5.4,3.04,9.17,3.62,3.53.55,7.94.82,13.11.82h17.41c5.69,0,10.38-.37,13.92-1.11,3.75-.78,6.7-2.12,8.79-3.99,2.11-1.9,3.55-4.44,4.27-7.54.67-2.86,1-6.4,1-10.51,0-3.79-.27-7-.81-9.54-.59-2.82-1.83-5.11-3.69-6.82Z" fill="#179c53"/><path d="M561.99,112.28c-.59-2.82-1.83-5.11-3.69-6.82-1.84-1.69-4.44-2.85-7.94-3.56-3.22-.66-7.55-1.05-12.86-1.14l-22.18-.36c-3.98-.06-7.16-.22-9.43-.49-2.53-.31-3.76-.84-4.35-1.24-.7-.46-1.12-1.12-1.33-2.07-.29-1.31-.44-3.11-.44-5.34,0-2.65.21-4.72.62-6.17.31-1.11.87-1.85,1.75-2.33.76-.41,2.29-.95,5.25-1.18,2.55-.2,6.09-.3,10.5-.3h15.55c3.62,0,6.68.03,9.1.09,2.15.05,3.83.38,5,.97.95.49,1.65,1.46,2.12,2.96.57,1.83.85,4.65.85,8.4v2.01h11.16v-2.01c0-5.38-.45-9.52-1.36-12.64-.98-3.36-2.67-5.91-5.03-7.56-2.25-1.58-5.27-2.59-8.96-3.01-3.41-.39-7.74-.58-12.88-.58h-15.92c-5.69,0-10.39.3-13.98.89-3.82.62-6.86,1.75-9.03,3.35-2.27,1.67-3.86,4.02-4.72,6.97-.78,2.7-1.18,6.12-1.18,10.15,0,3.66.29,6.79.85,9.32.63,2.77,1.91,5.03,3.81,6.72,1.87,1.65,4.47,2.81,7.94,3.54,3.23.68,7.5,1.07,12.7,1.16l20.68.36c4.32.09,7.81.24,10.36.46,2.79.25,4.16.76,4.8,1.14.74.45,1.19,1.11,1.42,2.08.32,1.38.48,3.32.48,5.77,0,2.81-.17,5.08-.51,6.75-.26,1.33-.8,2.3-1.66,2.96-.65.51-2.01,1.19-4.76,1.55-2.46.33-5.91.5-10.26.5h-17.05c-3.85,0-7.1-.09-9.64-.28-2.19-.17-3.88-.65-5-1.42-1.01-.71-1.75-1.97-2.2-3.76-.53-2.12-.8-5.21-.8-9.19v-2.01h-11.16v2.01c0,5.48.48,9.97,1.41,13.33,1.01,3.6,2.72,6.38,5.11,8.26,2.31,1.82,5.4,3.04,9.17,3.62,3.53.55,7.94.82,13.11.82h17.41c5.69,0,10.38-.37,13.92-1.11,3.75-.78,6.7-2.12,8.79-3.99,2.11-1.9,3.55-4.44,4.27-7.54.67-2.86,1-6.4,1-10.51,0-3.79-.27-7-.81-9.54Z" fill="#179c53"/></g></svg>