<?xml version="1.0" encoding="UTF-8"?><svg id="b" xmlns="http://www.w3.org/2000/svg" viewBox="0 0 158.58 192.3"><g id="c"><rect width="158.58" height="192.3" rx="7.96" ry="7.96" fill="#f4f4f5"/><path d="M115.62,87.24c0-.41.33-.74.74-.74h7.48c.41,0,.74.33.74.74v24.27c0,.41-.33.74-.74.74h-7.48c-.41,0-.74-.33-.74-.74v-24.27ZM78.6,157.89c0,.41-.33.74-.74.74h-24.27c-.41,0-.74-.33-.74-.74v-7.48c0-.41.33-.74.74-.74h24.27c.41,0,.74.33.74.74v7.48ZM86.82,126.3l-17.16-17.16c-.29-.29-.29-.76,0-1.05l5.29-5.29c.29-.29.76-.29,1.05,0l17.16,17.16c.29.29.29.76,0,1.05l-5.29,5.29c-.29.29-.76.29-1.05,0ZM120.03,182.47c-15.43,0-27.94-12.51-27.94-27.94s12.51-27.94,27.94-27.94,27.94,12.51,27.94,27.94-12.51,27.94-27.94,27.94Z" fill="#282f84"/><circle cx="120.03" cy="154.52" r="27.94" fill="#282f84"/><rect x="115.62" y="86.49" width="8.96" height="25.76" rx=".74" ry=".74" fill="#282f84"/><rect x="52.85" y="149.67" width="25.76" height="8.96" rx=".74" ry=".74" fill="#282f84"/><rect x="76.92" y="101.67" width="8.96" height="25.76" rx=".74" ry=".74" transform="translate(-57.16 91.11) rotate(-45)" fill="#282f84"/><path d="M146.67,121.14l5.29,5.29c.29.29.76.29,1.05,0l5.58-5.58v-12.67l-11.91,11.91c-.29.29-.29.76,0,1.05Z" fill="#282f84"/><path d="M158,187.32l-5-5c-.29-.29-.76-.29-1.05,0l-5.29,5.29c-.29.29-.29.76,0,1.05l3.64,3.64h.32c3.34,0,6.2-2.06,7.38-4.98Z" fill="#282f84"/><path d="M93.15,187.49l-5.29-5.29c-.29-.29-.76-.29-1.05,0l-10.1,10.1h12.67l3.77-3.77c.29-.29.29-.76,0-1.05Z" fill="#282f84"/></g></svg>