<?xml version="1.0" encoding="UTF-8"?><svg id="b" xmlns="http://www.w3.org/2000/svg" viewBox="0 0 94.74 47.29"><g id="c"><rect x="8.43" y="22.4" width="13.78" height="2.78" rx="1.39" ry="1.39" fill="#2e3d72"/><circle cx="3.32" cy="23.64" r="3.32" fill="#239fda"/><circle cx="91.41" cy="23.46" r="3.32" fill="#239fda"/><circle cx="91.41" cy="3.32" r="3.32" fill="#239fda"/><circle cx="91.41" cy="43.97" r="3.32" fill="#239fda"/><path d="M43.59,43.69c-11.01,0-19.96-8.96-19.96-19.96S32.58,3.76,43.59,3.76s19.96,8.96,19.96,19.96-8.96,19.96-19.96,19.96ZM43.59,6.76c-9.35,0-16.96,7.61-16.96,16.96s7.61,16.96,16.96,16.96,16.96-7.61,16.96-16.96-7.61-16.96-16.96-16.96Z" fill="#239fda"/><path d="M78.72,4.47h5.72s.02,0,.02,0c.65,0,1.18-.53,1.18-1.18v-.15c0-.65-.53-1.18-1.18-1.18h-1.68s-.01,0-.02,0h-4.04c-4.09,0-7.41,3.32-7.41,7.41v13.26h-4.83c-.69,0-1.25.56-1.25,1.25s.56,1.25,1.25,1.25h4.83v12.89c0,4.09,3.32,7.41,7.41,7.41h5.72s.02-.01.02-.01c.65,0,1.18-.53,1.18-1.18v-.15c0-.65-.53-1.18-1.18-1.18h-1.68s-.04.01-.06.01h-4c-2.71,0-4.91-2.2-4.91-4.91v-12.89h8.93s.03,0,.04,0h1.68c.65,0,1.18-.53,1.18-1.18v-.15c0-.65-.53-1.18-1.18-1.18h-.99s-.02,0-.03,0h-9.64v-13.26c0-2.71,2.2-4.91,4.91-4.91Z" fill="#2e3d72"/><path d="M44.64,13.08l-7.88,10.59c-.19.25,0,.61.31.61h4.42c.21,0,.38.17.38.38v7.62c0,.37.48.53.69.22l7.94-11.17c.18-.25,0-.6-.31-.6h-4.58c-.21,0-.39-.17-.38-.38.02-1.22.07-5.06.11-7.04,0-.37-.47-.53-.69-.23Z" fill="#239fda"/></g></svg>