<?xml version="1.0" encoding="UTF-8"?><svg id="b" xmlns="http://www.w3.org/2000/svg" viewBox="0 0 64 56"><g id="c"><path d="M17,25h-2c-1.7,0-3-1.31-3-3v30c0,1.69,1.3,3,3,3h2v-30Z" fill="#e8e9ea"/><line x1="51" y1="12" x2="51" y2="6" fill="none" stroke="#1a5185" stroke-miterlimit="10" stroke-width="2"/><line x1="54.78" y1="12.62" x2="57.39" y2="8.11" fill="none" stroke="#1a5185" stroke-miterlimit="10" stroke-width="2"/><line x1="57.72" y1="15.56" x2="62.23" y2="12.95" fill="none" stroke="#1a5185" stroke-miterlimit="10" stroke-width="2"/><line x1="59" y1="20" x2="64" y2="20" fill="none" stroke="#1a5185" stroke-miterlimit="10" stroke-width="2"/><path d="M12.98,4.51c0,1.94-1.57,3.51-3.51,3.51s-3.51-1.57-3.51-3.51,1.57-3.51,3.51-3.51,3.51,1.57,3.51,3.51Z" fill="none" stroke="#babfc3" stroke-miterlimit="10" stroke-width="2"/><line x1="23" y1="7" x2="23" y2="13" fill="none" stroke="#babfc3" stroke-miterlimit="10" stroke-width="2"/><line x1="26" y1="10" x2="20" y2="10" fill="none" stroke="#babfc3" stroke-miterlimit="10" stroke-width="2"/><line x1="3" y1="21" x2="3" y2="27" fill="none" stroke="#babfc3" stroke-miterlimit="10" stroke-width="2"/><line x1="6" y1="24" y2="24" fill="none" stroke="#babfc3" stroke-miterlimit="10" stroke-width="2"/><line x1="3" y1="21" x2="3" y2="27" fill="none" stroke="#babfc3" stroke-miterlimit="10" stroke-width="2"/><line x1="6" y1="24" y2="24" fill="none" stroke="#babfc3" stroke-miterlimit="10" stroke-width="2"/><path d="M12,22c0,1.69,1.3,3,3,3h38v-6H15c-1.7,0-3,1.31-3,3Z" fill="#e8e9ea"/><path d="M53,25v-6H15c-1.7,0-3,1.31-3,3" fill="none" stroke="#1a5185" stroke-miterlimit="10" stroke-width="2"/><polyline points="48.09 25 34.01 10.91 19.87 25" fill="#94d5ff"/><polyline points="48.09 25 34.01 10.91 19.87 25" fill="none" stroke="#1a5185" stroke-miterlimit="10" stroke-width="2"/><path d="M41,25l-4.87-4.9c-1.41,1.41-2.83,1.42-4.24,0l-4.89,4.9" fill="#e8e9ea"/><path d="M41,25l-4.87-4.9c-1.41,1.41-2.83,1.42-4.24,0l-4.89,4.9" fill="none" stroke="#1a5185" stroke-miterlimit="10" stroke-width="2"/><path d="M58,55H15c-1.7,0-3-1.31-3-3v-30c0,1.69,1.3,3,3,3h43v30Z" fill="none" stroke="#1a5185" stroke-miterlimit="10" stroke-width="2"/><path d="M59,45h-14.5c-3.04,0-5.5-2.46-5.5-5.5h0c0-3.04,2.46-5.5,5.5-5.5h14.5c1.1,0,2,.9,2,2v7c0,1.1-.9,2-2,2Z" fill="#94d5ff" stroke="#1a5185" stroke-miterlimit="10" stroke-width="2"/><path d="M43,39.5c0-1.38,1.12-2.5,2.5-2.5s2.5,1.12,2.5,2.5c0,1.38-1.12,2.5-2.5,2.5s-2.5-1.12-2.5-2.5Z" fill="#fff" stroke="#1a5185" stroke-miterlimit="10" stroke-width="2"/></g></svg>